<svg width="19" height="20" viewBox="0 0 19 20" xmlns="http://www.w3.org/2000/svg"><g id="Symbols" stroke="none" stroke-width="1" fill="none" fill-rule="evenodd"><g id="news_line_noback" transform="translate(-17 -117)" fill="#AAB9C8" fill-rule="nonzero"><g transform="translate(17 113)" id="date"><g id="calendar" transform="translate(0 4)"><path d="M18.66 1.333h-2.374v-1a.336.336 0 0 0-.34-.333h-2.375a.336.336 0 0 0-.339.333v1H5.768v-1A.336.336 0 0 0 5.428 0H3.055a.336.336 0 0 0-.34.333v1H.34a.336.336 0 0 0-.34.334v18c0 .184.152.333.34.333h18.32c.188 0 .34-.149.34-.333v-18a.336.336 0 0 0-.34-.334zM13.91.667h1.697v2h-1.696v-2zm-10.517 0h1.696v2H3.393v-2zM.679 2h2.035v1c0 .184.152.333.34.333h2.375A.336.336 0 0 0 5.768 3V2h7.464v1c0 .184.152.333.34.333h2.374c.188 0 .34-.149.34-.333V2h2.035v3H.68V2zm0 17.333V5.667H18.32v13.666H.68z" id="Shape"/><path d="M12.214 7.667h-9.16v9.666h12.892V7.667h-3.732zm-2.375.666h2.375v2.334H9.84V8.333zm2.375 5.334H9.84v-2.334h2.375v2.334zm-5.428-2.334H9.16v2.334H6.786v-2.334zm0-3H9.16v2.334H6.786V8.333zm-3.054 0h2.375v2.334H3.732V8.333zm0 3h2.375v2.334H3.732v-2.334zm2.375 5.334H3.732v-2.334h2.375v2.334zm3.054 0H6.786v-2.334H9.16v2.334zm3.053 0H9.84v-2.334h2.375v2.334zm3.054 0h-2.375v-2.334h2.375v2.334zm0-3h-2.375v-2.334h2.375v2.334zm0-5.334v2.334h-2.375V8.333h2.375z" id="Shape"/></g></g></g></g></svg>