<svg width="44" height="43" viewBox="0 0 44 43" xmlns="http://www.w3.org/2000/svg"><g id="Page-1" stroke="none" stroke-width="1" fill="none" fill-rule="evenodd"><g id="qha_design_home4" transform="translate(-400 -115)" fill="#AAB9C8" fill-rule="nonzero"><g id="header_3" transform="translate(-54 67)"><g id="header"><g id="socialblock" transform="translate(454 48)"><g id="facebook"><path d="M21.883 0C9.798 0 0 9.615 0 21.473c0 11.859 9.798 21.473 21.883 21.473 12.085 0 21.883-9.614 21.883-21.473C43.766 9.612 33.968 0 21.883 0zm5.656 21.47l-3.586.003-.002 12.884H19.03V21.473h-3.283v-4.44l3.283-.002-.006-2.614c0-3.624 1.001-5.828 5.348-5.828h3.621v4.443H25.73c-1.694 0-1.776.62-1.776 1.776l-.005 2.223h4.07l-.479 4.44z" id="Shape"/></g></g></g></g></g></g></svg>