<svg width="22" height="20" viewBox="0 0 22 20" xmlns="http://www.w3.org/2000/svg"><g id="Page-1" stroke="none" stroke-width="1" fill="none" fill-rule="evenodd"><g id="qha_design_home4" transform="translate(-998 -512)" fill="#AAB9C8" fill-rule="nonzero"><g id="news_item_design_1" transform="translate(975 456)"><g id="content-box-desc" transform="translate(21 19)"><g id="content-box"><g id="photo-camera" transform="translate(2 37)"><path d="M11 7.5c-1.823 0-3.3 1.68-3.3 3.75C7.7 13.321 9.177 15 11 15c1.822 0 3.3-1.679 3.3-3.75 0-2.07-1.478-3.75-3.3-3.75zm8.8-3.75h-2.64c-.363 0-.754-.32-.869-.712L15.61.712C15.494.32 15.103 0 14.74 0H7.26c-.363 0-.754.32-.869.712L5.71 3.038c-.115.391-.506.711-.869.711H2.2C.99 3.75 0 4.875 0 6.25V17.5C0 18.875.99 20 2.2 20h17.6c1.21 0 2.2-1.125 2.2-2.5V6.25c0-1.375-.99-2.5-2.2-2.5zM11 17.5c-3.038 0-5.5-2.798-5.5-6.25S7.962 5 11 5c3.037 0 5.5 2.798 5.5 6.25S14.037 17.5 11 17.5zm8.03-9.502c-.425 0-.77-.391-.77-.875 0-.483.345-.875.77-.875.425 0 .77.392.77.875 0 .484-.345.875-.77.875z" id="Shape"/></g></g></g></g></g></g></svg>