<svg width="80" height="15" viewBox="0 0 80 15" xmlns="http://www.w3.org/2000/svg"><g id="Page-1" stroke="none" stroke-width="1" fill="none" fill-rule="evenodd"><g id="qha_design_home4" transform="translate(-1403 -215)" fill="#FFF" fill-rule="nonzero"><g id="header_3" transform="translate(-54 67)"><g id="header"><g id="radio" transform="translate(1401 136)"><g transform="translate(56 12.033)" id="-qha-radio"><g id="Group" transform="translate(55.38 1.91)"><path d="M.04 10.913V3.16h1.528v.826c.307-.287.614-.512.914-.676.3-.164.667-.246 1.108-.246v1.652a1.201 1.201 0 0 0-.46-.089 1.82 1.82 0 0 0-.514.082c-.187.055-.354.15-.5.28a1.45 1.45 0 0 0-.388.518c-.1.212-.147.478-.147.792v4.6H.04v.014zm7.44 0v-.792h-.027c-.2.287-.4.505-.607.655-.207.15-.494.232-.861.232-.18 0-.36-.027-.547-.082a1.538 1.538 0 0 1-.947-.935c-.107-.273-.16-.62-.16-1.044 0-.437.033-.826.106-1.153.067-.335.2-.608.387-.833.18-.211.42-.375.734-.484.307-.11.7-.164 1.18-.164h.168c.06 0 .113.007.167.013a.668.668 0 0 0 .18.014c.066 0 .146.007.227.014v-.812c0-.267-.054-.485-.167-.656-.107-.17-.307-.259-.6-.259-.2 0-.381.068-.548.198-.167.13-.273.328-.32.58H4.364c.04-.696.267-1.256.687-1.679.2-.204.44-.361.72-.484.28-.116.594-.178.941-.178.32 0 .62.055.894.15.28.103.52.253.734.458.2.204.36.457.48.764S9 5.098 9 5.507v5.399H7.48v.007zm0-3.33a2.804 2.804 0 0 0-.42-.049c-.328 0-.615.082-.848.24-.234.156-.354.443-.354.866 0 .293.067.532.207.717.14.184.334.273.58.273.26 0 .46-.09.608-.26.146-.17.213-.416.213-.737v-1.05h.014zm6.178 3.33v-.703c-.1.109-.193.218-.287.314a1.46 1.46 0 0 1-.674.423 1.78 1.78 0 0 1-.493.061c-.641 0-1.081-.246-1.328-.737a2.19 2.19 0 0 1-.194-.641 6.857 6.857 0 0 1-.06-1.024V5.658c0-.56.014-.976.047-1.236.06-.511.293-.894.7-1.146.187-.13.474-.198.855-.198.3 0 .567.068.8.205a1.9 1.9 0 0 1 .607.587h.027V.034h1.528V10.92h-1.528v-.006zm-1.515-2.526c0 .314.06.574.18.765.12.19.308.293.568.293a.674.674 0 0 0 .554-.266c.14-.177.206-.41.206-.696v-3.01a.896.896 0 0 0-.213-.607.718.718 0 0 0-.547-.239c-.287 0-.487.089-.594.273a1.25 1.25 0 0 0-.16.642v2.845h.006zm4.784-6.804V.02h1.528v1.563h-1.528zm0 9.33V3.16h1.528v7.753h-1.528zM20.07 5.76c0-.314.02-.607.06-.874a2.112 2.112 0 0 1 .994-1.515c.334-.204.74-.307 1.221-.307.48 0 .888.103 1.221.307.334.205.594.471.768.813.106.204.186.436.226.702.04.267.06.553.06.874v2.552c0 .314-.02.608-.06.874a2.112 2.112 0 0 1-.994 1.515c-.333.205-.74.307-1.22.307-.481 0-.888-.102-1.222-.307a2.065 2.065 0 0 1-.767-.812 2.22 2.22 0 0 1-.227-.703 5.847 5.847 0 0 1-.06-.874V5.76zm1.521 2.798c0 .294.067.519.2.662.134.15.314.218.548.218a.72.72 0 0 0 .547-.218c.133-.15.2-.368.2-.662V5.514c0-.293-.067-.518-.2-.662-.134-.15-.314-.218-.547-.218a.72.72 0 0 0-.548.218c-.133.15-.2.369-.2.662v3.044z" id="Shape"/></g><g id="Group"><path d="M34.782.055h-2.148v4.982H21.278V1.74c0-.935-.74-1.685-1.648-1.685H2.008c-.64 0-1.127.204-1.468.6-.32.369-.487.785-.487 1.235v8.968c0 .655.187 1.153.56 1.501.381.335.735.499 1.055.499h7.793l2.122 1.501h4.704l-1.935-1.495h6.926V7.725H32.64v5.14h3.683V2.046c0-.116-.014-.232-.027-.34-.027-.86-.68-1.577-1.515-1.652zM17.374 10.21l-3.282-.055.267 2.703-3.423-2.648h-6.98V3.665c0-.512.408-.935.915-.935h12.503v7.48z" id="Shape"/><path d="M51.363 1.747c0-.935-.74-1.692-1.655-1.692-.08 0-.16.006-.24.02v-.02H35.176c.147 0 .394.075.4.075.427.143.774.47.941.894.16.375.194.791.194 1.023v.656h.053l-.007.006h9.995c.514 0 .928.424.928.949v1.624H36.717V7.72H47.64v5.139h3.723V2.054c0-.048-.007-.095-.007-.15 0-.055.007-.102.007-.157z" id="Shape"/></g></g></g></g></g></g></g></svg>