<svg width="322" height="54" viewBox="0 0 322 54" xmlns="http://www.w3.org/2000/svg"><g id="Page-1" stroke="none" stroke-width="1" fill="none" fill-rule="evenodd"><g id="qha_design_home4" transform="translate(-800 -108)"><g id="header_3" transform="translate(-54 67)"><g id="header"><g id="-qha_logo" transform="translate(854 41)"><g id="qha_logo_brand"><g id="biglogo"><path d="M65.77 38.073l-12.467-.208 1.004 10.04-12.994-9.832H14.819V13.778a3.463 3.463 0 0 1 3.464-3.463H65.77v27.758zM131.895.377h-3.382l-.039-.002h-4.728v18.506H80.59V6.642A6.267 6.267 0 0 0 74.323.375H7.41c-2.434 0-4.29.748-5.567 2.241C.614 3.99 0 5.52 0 7.206v33.288c0 2.435.71 4.29 2.132 5.566 1.446 1.23 2.784 1.844 4.013 1.844h29.602l8.06 5.566h17.855l-7.345-5.558 11.453-.008h14.82V28.82h43.156v19.084h13.981V7.784c0-.44-.045-.856-.111-1.26-.067-3.22-2.555-5.871-5.72-6.147z" id="Fill-1" fill="#295982"/><path d="M194.854 6.656a6.28 6.28 0 0 0-6.279-6.28c-.314 0-.619.03-.92.076V.377h-2.016l-.037-.002h-48.18l-4.02.002c.548 0 1.504.273 1.518.278a5.79 5.79 0 0 1 3.578 3.316c.61 1.393.736 2.934.736 3.814v2.436h.2l-.014.016h37.96a3.516 3.516 0 0 1 3.517 3.517v6.028h-41.663v9.038h41.488v19.084h14.132V7.784c0-.188-.017-.366-.03-.547.018-.192.03-.385.03-.581" id="Fill-2" fill="#295982"/><path d="M210.262 47.78V18.999h5.791v2.782h.113a8.226 8.226 0 0 1 2.187-2.242c.851-.587 1.939-.88 3.264-.88 1.249 0 2.29.303 3.123.908.832.606 1.512 1.268 2.043 1.987a12.13 12.13 0 0 1 2.385-2.044c.87-.567 2.08-.851 3.633-.851a7.16 7.16 0 0 1 2.214.369 5.418 5.418 0 0 1 2.044 1.22c.605.568 1.097 1.297 1.476 2.186.378.89.568 1.978.568 3.264v22.084h-5.791V27.854c0-1.058-.246-1.892-.738-2.498-.492-.604-1.192-.908-2.1-.908-1.099 0-1.856.341-2.272 1.022-.417.682-.624 1.666-.624 2.952v19.359h-5.79V27.854c0-1.058-.247-1.892-.739-2.498-.492-.604-1.192-.908-2.1-.908-1.099 0-1.855.341-2.271 1.022-.417.682-.625 1.666-.625 2.952v19.359h-5.79" id="Fill-3" fill="#AAB9C8"/><path d="M251.024 31.034h5.677V27.74c0-1.097-.255-1.92-.766-2.47-.51-.548-1.202-.823-2.072-.823-.871 0-1.561.275-2.073.823-.51.55-.766 1.373-.766 2.47v3.293zm11.468 4.541h-11.468v3.917c0 .909.256 1.61.766 2.101.512.492 1.202.738 2.073.738 1.097 0 1.826-.321 2.186-.965.359-.643.576-1.286.652-1.93h5.791c0 2.536-.776 4.58-2.328 6.131a8.154 8.154 0 0 1-2.725 1.873c-1.06.454-2.252.681-3.576.681-1.817 0-3.36-.377-4.627-1.135-1.268-.757-2.242-1.76-2.924-3.009-.417-.756-.7-1.626-.851-2.611a21.302 21.302 0 0 1-.227-3.236v-9.48c0-1.173.075-2.252.227-3.236.15-.984.434-1.854.851-2.612.682-1.249 1.656-2.251 2.924-3.009 1.267-.756 2.81-1.135 4.627-1.135 1.324 0 2.526.227 3.605.681a8.08 8.08 0 0 1 2.754 1.873c1.512 1.704 2.27 3.842 2.27 6.415v7.948z" id="Fill-4" fill="#AAB9C8"/><path d="M274.414 38.414c0 1.173.227 2.12.682 2.838.453.72 1.172 1.079 2.157 1.079.87 0 1.57-.331 2.1-.994.53-.661.795-1.523.795-2.583V27.57c0-.909-.275-1.656-.823-2.243-.55-.586-1.24-.88-2.072-.88-1.1 0-1.846.341-2.243 1.022-.397.682-.596 1.476-.596 2.384v10.56zm5.734 9.367V45.17c-.379.416-.738.804-1.079 1.163-.34.36-.72.673-1.135.937-.417.265-.89.474-1.42.624-.53.15-1.155.227-1.873.227-2.422 0-4.107-.908-5.053-2.725-.34-.642-.587-1.437-.738-2.384-.151-.946-.227-2.214-.227-3.803V28.252c0-2.08.057-3.614.17-4.598.227-1.892 1.116-3.312 2.67-4.258.717-.491 1.796-.738 3.235-.738 1.135 0 2.147.255 3.037.766.888.511 1.656 1.24 2.3 2.186h.113V7.36h5.79v40.42h-5.79z" id="Fill-5" fill="#AAB9C8"/><path d="M292.58 47.78h5.79V18.999h-5.79v28.783zm0-34.63h5.79V7.36h-5.79v5.79z" id="Fill-6" fill="#AAB9C8"/><path d="M315.97 35.405c-.644-.114-1.174-.17-1.59-.17-1.249 0-2.319.293-3.207.88-.89.587-1.335 1.655-1.335 3.207 0 1.098.264 1.987.795 2.668.53.682 1.268 1.022 2.214 1.022.983 0 1.75-.321 2.3-.965.548-.643.822-1.552.822-2.725v-3.917zm0 12.376v-2.952h-.114c-.758 1.06-1.524 1.873-2.3 2.44-.775.568-1.864.852-3.264.852a7.268 7.268 0 0 1-2.072-.312c-.7-.207-1.372-.596-2.015-1.164-.645-.529-1.164-1.296-1.561-2.299-.398-1.002-.596-2.299-.596-3.889 0-1.626.131-3.055.397-4.286.264-1.23.757-2.26 1.476-3.093.682-.796 1.608-1.392 2.782-1.79 1.173-.396 2.668-.595 4.485-.595h.624c.227 0 .434.02.625.057.189.038.416.057.68.057.265 0 .55.02.852.056v-3.009c0-.983-.208-1.797-.624-2.44-.416-.644-1.173-.966-2.271-.966-.757 0-1.447.247-2.072.739s-1.032 1.211-1.22 2.157h-5.621c.15-2.574 1.022-4.655 2.612-6.245a8.219 8.219 0 0 1 2.725-1.789c1.059-.434 2.25-.652 3.576-.652 1.211 0 2.346.19 3.407.568a7.791 7.791 0 0 1 2.781 1.702c.757.758 1.363 1.704 1.817 2.839.454 1.135.68 2.46.68 3.974v20.04h-5.79z" id="Fill-7" fill="#AAB9C8"/></g></g></g></g></g></g></g></svg>