<svg width="22" height="22" viewBox="0 0 22 22" xmlns="http://www.w3.org/2000/svg"><g id="Page-1" stroke="none" stroke-width="1" fill="none" fill-rule="evenodd"><g id="qha_design_home4" transform="translate(-1483 -125)" fill="#FFF" fill-rule="nonzero"><g id="header_3" transform="translate(-54 67)"><g id="header"><g id="search" transform="translate(1527 48)"><path d="M0 9.155c0 5.05 4.108 9.155 9.153 9.155 2.324 0 4.45-.874 6.068-2.307l5.833 5.835a.549.549 0 0 0 .392.162.549.549 0 0 0 .392-.162.55.55 0 0 0 0-.78L16 15.224a9.122 9.122 0 0 0 2.306-6.069C18.306 4.105 14.198 0 9.153 0 4.108 0 0 4.104 0 9.155zm17.203 0c0 4.438-3.613 8.051-8.05 8.051-4.437 0-8.05-3.613-8.05-8.051 0-4.438 3.613-8.051 8.05-8.051 4.437 0 8.05 3.609 8.05 8.051z" transform="translate(10 10)" id="Shape"/></g></g></g></g></g></svg>