<svg aria-hidden="true" style="position:absolute;width:0;height:0" xmlns="http://www.w3.org/2000/svg" overflow="hidden"><defs><symbol id="icon-search" viewBox="0 0 32 32"><path d="M25.023 13.324c0 6.458-5.255 11.718-11.709 11.718S1.605 19.784 1.605 13.324c0-6.458 5.255-11.718 11.709-11.718s11.709 5.251 11.709 11.718zM0 13.316c0 7.345 5.975 13.316 13.313 13.316 3.38 0 6.473-1.271 8.826-3.356l8.484 8.487a.795.795 0 0 0 .566.236h.008c.221 0 .422-.09.566-.236a.797.797 0 0 0 0-1.134l-8.492-8.486a13.207 13.207 0 0 0 3.354-8.818v-.01.001C26.625 5.971 20.65 0 13.312 0S-.001 5.969-.001 13.316z"/></symbol></defs></svg>