<svg width="10" height="10" viewBox="0 0 10 10" xmlns="http://www.w3.org/2000/svg"><g id="Page-1" stroke="none" stroke-width="1" fill="none" fill-rule="evenodd"><g id="qha_design_home4" transform="translate(-1494 -26)" fill="#E6E6E6" fill-rule="nonzero"><g id="coockes" transform="translate(-3 -42)"><g id="close" transform="translate(1487 58)"><path d="M19.53 10.457a.746.746 0 0 0-1.059 0l-3.477 3.478-3.478-3.478a.746.746 0 0 0-1.059 0 .746.746 0 0 0 0 1.06l3.478 3.477-3.478 3.477a.746.746 0 0 0 0 1.06c.147.147.337.22.533.22a.746.746 0 0 0 .532-.22L15 16.053l3.478 3.478c.146.147.336.22.532.22a.746.746 0 0 0 .533-.22.746.746 0 0 0 0-1.06l-3.49-3.477 3.478-3.478a.746.746 0 0 0 0-1.059z" id="Shape"/></g></g></g></g></svg>