<svg xmlns="http://www.w3.org/2000/svg" xmlns:xlink="http://www.w3.org/1999/xlink" width="3" height="7" viewBox="0 0 3 7"><defs><path id="jnava" d="M1419.665 5470.27a.226.226 0 0 1-.228.226.226.226 0 0 1-.227-.226v-.905c0-.125.102-.226.227-.226.126 0 .228.101.228.226zm0 2.93a.226.226 0 0 1-.228.225.226.226 0 0 1-.227-.225v-.897c0-.124.102-.225.227-.225.126 0 .228.1.228.225zm3.157-7a.698.698 0 0 0-.388.121l-3.08 2.592h-2.417a.226.226 0 0 0-.227.226v4.296c0 .125.102.226.227.226h2.412l3.078 2.811c.011.01.023.02.036.028.11.065.234.1.36.1a.71.71 0 0 0 .705-.714v-8.972a.71.71 0 0 0-.706-.714z"/><path id="jnavb" d="M1426.486 5471.29c0-1.35-.911-2.556-2.216-2.931a.226.226 0 1 0-.126.435 2.613 2.613 0 0 1 1.888 2.495c0 1.15-.776 2.177-1.888 2.496a.226.226 0 1 0 .126.435 3.068 3.068 0 0 0 2.216-2.93z"/></defs><g><g transform="translate(-1424 -5468)"><g><use fill="#fff" xlink:href="#jnava"/></g><g><use fill="#fff" xlink:href="#jnavb"/></g></g></g></svg>