<svg width="20" height="22" viewBox="0 0 20 22" xmlns="http://www.w3.org/2000/svg"><g id="Page-1" stroke="none" stroke-width="1" fill="none" fill-rule="evenodd"><g id="qha_design_home4" transform="translate(-1364 -211)" fill="#FFF" fill-rule="nonzero"><g id="header_3" transform="translate(-54 67)"><g id="header"><g id="radio" transform="translate(1401 136)"><g transform="translate(9.6 2.433)" id="speaker_btn"><g id="speaker" transform="translate(7.2 6.4)"><path d="M12.445 0c-.25 0-.498.07-.717.2a.422.422 0 0 0-.06.043L5.51 5.426H.676a.453.453 0 0 0-.455.452v8.592c0 .25.204.452.455.452h4.823l6.156 5.623a.43.43 0 0 0 .073.054c.22.132.467.201.717.201.78 0 1.412-.64 1.412-1.427V1.427A1.42 1.42 0 0 0 12.445 0zM6.13 14.017c0 .25-.203.453-.454.453a.453.453 0 0 1-.455-.453V12.21c0-.25.204-.452.455-.452s.454.202.454.452v1.808zm0-5.878c0 .25-.203.452-.454.452a.453.453 0 0 1-.455-.452V6.33c0-.25.204-.452.455-.452s.454.202.454.452v1.81zm13.649 2.035c0-2.7-1.823-5.11-4.432-5.861a.452.452 0 1 0-.252.87c2.223.638 3.775 2.69 3.775 4.99 0 2.301-1.552 4.354-3.775 4.993a.452.452 0 1 0 .252.869c2.61-.75 4.432-3.16 4.432-5.861z" id="Shape"/></g></g></g></g></g></g></g></svg>