<svg xmlns="http://www.w3.org/2000/svg" xmlns:xlink="http://www.w3.org/1999/xlink" width="37" height="30" viewBox="0 0 37 30"><defs><path id="8vw3a" d="M895.48 3781.542c-1.388 0-2.539-1.148-2.539-2.533 0-1.384 1.151-2.532 2.539-2.532 1.387 0 2.538 1.148 2.538 2.532 0 1.385-1.15 2.533-2.538 2.533zm-8.855 0a2.551 2.551 0 0 1-2.534-2.533 2.551 2.551 0 0 1 2.534-2.532 2.551 2.551 0 0 1 2.533 2.532 2.551 2.551 0 0 1-2.533 2.533zm-8.88 0c-1.387 0-2.538-1.148-2.538-2.533 0-1.384 1.151-2.532 2.539-2.532 1.387 0 2.538 1.148 2.538 2.532a2.532 2.532 0 0 1-2.538 2.533zm21.454-13.522h-25.342a2.744 2.744 0 0 0-2.737 2.73v15.708c0 1.517 1.25 2.73 2.737 2.73h17.47l3.953 3.978c.169.169.372.27.608.27.473 0 .879-.371.879-.877v-3.37h2.432a2.744 2.744 0 0 0 2.737-2.73v-15.709c0-1.517-1.25-2.73-2.737-2.73z"/><path id="8vw3b" d="M869.563 3786.52v-5.36h-2.771a1.8 1.8 0 0 0-1.791 1.787v10.314a1.774 1.774 0 0 0 1.79 1.854h1.589v2.225c0 .303.27.573.574.573a.56.56 0 0 0 .406-.169l2.602-2.595h11.488a1.8 1.8 0 0 0 1.791-1.787v-2.562h-11.387a4.292 4.292 0 0 1-4.291-4.28z"/></defs><g><g transform="translate(-865 -3768)"><g><use fill="#aab9c8" xlink:href="#8vw3a"/></g><g><use fill="#aab9c8" xlink:href="#8vw3b"/></g></g></g></svg>