<svg aria-hidden="true" style="position:absolute;width:0;height:0" xmlns="http://www.w3.org/2000/svg" overflow="hidden"><defs><symbol id="icon-speaker" viewBox="0 0 29 32"><path fill="var(--color1, #fff)" d="M17.812 1.211c-.364 0-.725.101-1.044.292a.742.742 0 0 0-.086.061L7.723 9.103H.692a.659.659 0 0 0-.661.658v12.496a.66.66 0 0 0 .661.658h7.015l8.954 8.179c.033.03.069.057.106.079.319.191.68.292 1.044.292 1.133 0 2.054-.931 2.054-2.076V3.286a2.067 2.067 0 0 0-2.054-2.076zM8.626 21.6c0 .364-.296.658-.661.658s-.661-.294-.661-.658v-2.631c0-.364.296-.658.661-.658s.661.294.661.658V21.6zm0-8.55c0 .364-.296.658-.661.658s-.661-.294-.661-.658v-2.631c0-.364.296-.658.661-.658s.661.294.661.658v2.631zm19.852 2.96c0-3.928-2.651-7.433-6.446-8.525a.663.663 0 0 0-.819.45.657.657 0 0 0 .452.814c3.232.929 5.49 3.915 5.49 7.261s-2.258 6.332-5.49 7.261a.658.658 0 1 0 .366 1.264c3.795-1.092 6.446-4.597 6.446-8.525z"/></symbol><symbol id="icon-radio_not_active" viewBox="0 0 134 32"><path fill="var(--color2, #000)" d="M5.12.8h123.504a5.12 5.12 0 0 1 5.12 5.12v20.036a5.12 5.12 0 0 1-5.12 5.12H5.12A5.12 5.12 0 0 1 0 25.956V5.92A5.12 5.12 0 0 1 5.12.8z"/><path fill="var(--color2, #000)" d="M40.91 16.434c0 13.569-11.624 24.568-25.962 24.568s-25.962-11-25.962-24.568C-11.014 2.865.61-8.134 14.948-8.134s25.962 11 25.962 24.568z"/><path fill="var(--color3, #aab9c8)" opacity=".163" d="M40.91 16.434c0 13.569-11.624 24.568-25.962 24.568s-25.962-11-25.962-24.568C-11.014 2.865.61-8.134 14.948-8.134s25.962 11 25.962 24.568z"/><path fill="var(--color2, #000)" d="M56.645 16.434c0 17.68-15.146 32.013-33.829 32.013s-33.829-14.333-33.829-32.013S4.133-15.579 22.816-15.579 56.645-1.246 56.645 16.434z"/><path fill="var(--color3, #aab9c8)" opacity=".043" d="M56.645 16.434c0 17.68-15.146 32.013-33.829 32.013s-33.829-14.333-33.829-32.013S4.133-15.579 22.816-15.579 56.645-1.246 56.645 16.434z"/><path fill="var(--color2, #000)" d="M74.477 15.938c0 24.259-20.782 43.925-46.417 43.925s-46.417-19.666-46.417-43.925c0-24.259 20.782-43.925 46.417-43.925S74.477-8.321 74.477 15.938z"/><path fill="var(--color3, #aab9c8)" opacity=".036" d="M74.477 15.938c0 24.259-20.782 43.925-46.417 43.925s-46.417-19.666-46.417-43.925c0-24.259 20.782-43.925 46.417-43.925S74.477-8.321 74.477 15.938z"/><path fill="var(--color2, #000)" d="M34.56 16.186c0 7.423-6.017 13.44-13.44 13.44S7.68 23.609 7.68 16.186c0-7.423 6.017-13.44 13.44-13.44s13.44 6.017 13.44 13.44z"/><path fill="var(--color4, #9ab)" d="M34.56 16.186c0 7.423-6.017 13.44-13.44 13.44S7.68 23.609 7.68 16.186c0-7.423 6.017-13.44 13.44-13.44s13.44 6.017 13.44 13.44z"/><path fill="var(--color1, #fff)" d="M23.396 7.866c-.2 0-.399.055-.574.161a.269.269 0 0 0-.047.034l-4.927 4.147h-3.867a.363.363 0 0 0-.364.362v6.873c0 .2.163.362.364.362h3.858l4.925 4.499a.307.307 0 0 0 .059.043c.176.105.374.161.574.161.623 0 1.129-.512 1.129-1.142V9.009c0-.629-.507-1.142-1.129-1.142zM18.344 19.08c0 .2-.163.362-.364.362s-.364-.162-.364-.362v-1.447c0-.2.163-.362.364-.362s.364.162.364.362v1.447zm0-4.703c0 .2-.163.362-.364.362s-.364-.162-.364-.362V12.93c0-.2.163-.362.364-.362s.364.162.364.362v1.447zm10.919 1.628c0-2.16-1.458-4.088-3.545-4.689-.194-.055-.394.055-.45.247s.055.393.249.448c1.778.511 3.02 2.153 3.02 3.994s-1.242 3.482-3.02 3.994a.362.362 0 1 0 .201.696c2.087-.601 3.545-2.529 3.545-4.689zm59.873 4.68v-6.202h1.222v.661c.246-.229.491-.409.731-.54s.534-.197.886-.197v1.321c-.117-.049-.246-.071-.368-.071s-.267.022-.411.066c-.149.044-.283.12-.4.224-.128.104-.23.246-.31.415s-.117.382-.117.633v3.68h-1.233v.011zm5.951 0v-.633h-.021c-.16.229-.32.404-.486.524s-.395.186-.689.186c-.144 0-.288-.022-.438-.066s-.288-.131-.427-.251c-.133-.115-.246-.278-.331-.497s-.128-.497-.128-.835c0-.349.027-.661.085-.923a1.46 1.46 0 0 1 .31-.666c.144-.169.336-.3.587-.388.246-.087.56-.131.945-.131h.133c.048 0 .091.005.133.011a.546.546 0 0 0 .144.011c.053 0 .117.005.181.011v-.65c0-.213-.043-.388-.133-.524-.085-.136-.246-.207-.48-.207-.16 0-.304.055-.438.158s-.219.262-.256.464h-1.185c.032-.557.213-1.005.55-1.343a1.81 1.81 0 0 1 .576-.388c.224-.093.475-.142.753-.142.256 0 .496.044.715.12.224.082.416.202.587.366.16.164.288.366.384.611s.144.53.144.857v4.319h-1.217v.005zm0-2.664a2.219 2.219 0 0 0-.336-.038c-.262 0-.491.066-.678.191s-.283.355-.283.693c0 .235.053.426.165.573s.267.218.464.218c.208 0 .368-.071.486-.207s.171-.333.171-.59v-.841h.011zm4.943 2.664v-.562c-.08.087-.155.175-.23.251a1.09 1.09 0 0 1-.24.202c-.085.055-.187.104-.299.137s-.246.049-.395.049c-.512 0-.865-.197-1.062-.59-.069-.137-.123-.311-.155-.513s-.048-.475-.048-.819v-2.359c0-.448.011-.781.037-.988.048-.409.235-.715.56-.917.149-.104.379-.158.683-.158.24 0 .454.055.641.164s.347.268.486.47h.021v-3.068h1.222v8.708h-1.222v-.005zm-1.212-2.02c0 .251.048.459.144.611s.246.235.454.235c.181 0 .331-.071.443-.213s.165-.328.165-.557v-2.408a.717.717 0 0 0-.171-.486.573.573 0 0 0-.438-.191c-.23 0-.39.071-.475.218s-.128.317-.128.513v2.277h.005zm3.828-5.443v-1.25h1.222v1.25h-1.222zm0 7.463v-6.202h1.222v6.202h-1.222zm2.514-4.122c0-.251.016-.486.048-.699s.091-.399.181-.562c.144-.268.347-.486.614-.65s.593-.246.977-.246.71.082.977.246.475.377.614.65c.085.164.149.349.181.562s.048.442.048.699v2.042c0 .251-.016.486-.048.699s-.091.399-.181.562c-.144.268-.347.486-.614.65s-.593.246-.977.246-.71-.082-.977-.246-.47-.377-.614-.65c-.085-.164-.149-.349-.181-.562s-.048-.442-.048-.699v-2.042zm1.217 2.238c0 .235.053.415.16.53.107.12.251.175.438.175.181 0 .331-.06.438-.175.107-.12.16-.295.16-.53v-2.435c0-.235-.053-.415-.16-.53-.107-.12-.251-.175-.438-.175a.577.577 0 0 0-.438.175c-.107.12-.16.295-.16.53v2.435zM72.626 10.47h-1.719v3.986h-9.085v-2.637c0-.748-.593-1.349-1.318-1.349H46.407c-.512 0-.902.164-1.174.48-.256.295-.39.628-.39.988v7.174c0 .524.149.923.448 1.201.304.268.587.399.843.399h6.235l1.697 1.201h3.763l-1.548-1.196h5.541v-4.111h9.09v4.111h2.946v-8.654c0-.093-.011-.186-.021-.273-.021-.688-.544-1.261-1.212-1.321zM58.7 18.594l-2.626-.044.214 2.162-2.738-2.118h-5.583v-5.236c0-.409.326-.748.731-.748h10.003v5.984z"/><path fill="var(--color1, #fff)" d="M85.89 11.824c0-.748-.593-1.354-1.324-1.354a1.13 1.13 0 0 0-.192.016v-.016H72.941c.117 0 .315.06.32.06.342.115.619.377.753.715.128.3.155.633.155.819v.524h.043l-.005.005h7.996c.411 0 .742.338.742.759v1.299h-8.77V16.6h8.738v4.111h2.978v-8.643c0-.038-.005-.076-.005-.12s.005-.082.005-.126z"/></symbol><symbol id="icon-youtube-play-button" viewBox="0 0 47 32"><path fill="var(--color3, #aab9c8)" d="M46.933 6.836C46.933 3.06 43.793 0 39.919 0H7.014C3.14 0 0 3.06 0 6.836v18.328C0 28.94 3.14 32 7.014 32h32.905c3.874 0 7.014-3.06 7.014-6.836V6.836zm-28.16 16.897V6.517l13.403 8.608-13.403 8.608z"/></symbol><symbol id="icon-qha-radio" viewBox="0 0 171 32"><path fill="var(--color1, #fff)" d="M118.228 27.426V10.887h3.26v1.762c.655-.611 1.31-1.092 1.95-1.441s1.423-.524 2.363-.524v3.523c-.313-.131-.655-.189-.982-.189s-.712.058-1.096.175c-.399.116-.754.32-1.068.597-.342.277-.612.655-.826 1.107s-.313 1.019-.313 1.689v9.813h-3.288v.029zm15.871 0v-1.689h-.057c-.427.611-.854 1.077-1.295 1.398s-1.053.495-1.836.495c-.384 0-.769-.058-1.167-.175s-.769-.349-1.139-.67c-.356-.306-.655-.743-.882-1.325s-.342-1.325-.342-2.228c0-.932.071-1.762.228-2.46a3.916 3.916 0 0 1 .826-1.776c.384-.451.897-.801 1.566-1.034.655-.233 1.495-.349 2.519-.349h.356c.128 0 .242.015.356.029.1.029.228.029.384.029.142 0 .313.015.484.029v-1.733c0-.568-.114-1.034-.356-1.398-.228-.364-.655-.553-1.281-.553-.427 0-.811.146-1.167.422s-.584.699-.683 1.238h-3.16c.085-1.485.569-2.679 1.466-3.582.427-.437.939-.772 1.537-1.034a5.194 5.194 0 0 1 2.007-.379c.683 0 1.324.116 1.907.32a4.41 4.41 0 0 1 1.566.975c.427.437.769.975 1.025 1.631s.384 1.412.384 2.286v11.516H134.1v.015zm0-7.104c-.356-.058-.655-.102-.897-.102-.697 0-1.31.175-1.808.51s-.754.946-.754 1.849c0 .626.142 1.136.441 1.529s.712.582 1.238.582c.555 0 .982-.189 1.295-.553s.456-.888.456-1.572v-2.242h.028zm13.181 7.104v-1.5c-.214.233-.413.466-.612.67a2.899 2.899 0 0 1-.641.539c-.228.146-.498.277-.797.364s-.655.131-1.053.131c-1.366 0-2.306-.524-2.833-1.572-.185-.364-.327-.83-.413-1.369s-.128-1.267-.128-2.184v-6.29c0-1.194.028-2.082.1-2.635.128-1.092.626-1.907 1.495-2.446.399-.277 1.011-.422 1.822-.422.641 0 1.21.146 1.708.437s.925.713 1.295 1.252h.057V4.219h3.26v23.222h-3.26v-.015zm-3.231-5.386c0 .67.128 1.223.384 1.631s.655.626 1.21.626c.484 0 .882-.189 1.181-.568s.441-.874.441-1.485v-6.421c0-.524-.157-.946-.456-1.296a1.531 1.531 0 0 0-1.167-.51c-.612 0-1.039.189-1.267.582s-.342.844-.342 1.369v6.071h.014zm10.206-14.516V4.19h3.26v3.334h-3.26zm0 19.902V10.887h3.26v16.539h-3.26zm6.704-10.992c0-.67.043-1.296.128-1.864s.242-1.063.484-1.5c.384-.713.925-1.296 1.637-1.733s1.58-.655 2.605-.655 1.893.218 2.605.655 1.267 1.005 1.637 1.733c.228.437.399.932.484 1.5s.128 1.179.128 1.864v5.445c0 .67-.043 1.296-.128 1.864s-.242 1.063-.484 1.5c-.384.713-.925 1.296-1.637 1.733s-1.58.655-2.605.655-1.893-.218-2.605-.655-1.253-1.005-1.637-1.733c-.228-.437-.399-.932-.484-1.5s-.128-1.179-.128-1.864v-5.445zm3.245 5.97c0 .626.142 1.107.427 1.412.285.32.669.466 1.167.466.484 0 .882-.16 1.167-.466.285-.32.427-.786.427-1.412v-6.493c0-.626-.142-1.107-.427-1.412-.285-.32-.669-.466-1.167-.466-.484 0-.882.16-1.167.466-.285.32-.427.786-.427 1.412v6.493zM74.202.186h-4.583v10.628H45.393V3.782c0-1.995-1.58-3.596-3.516-3.596H4.285c-1.366 0-2.406.437-3.131 1.281C.471 2.253.115 3.141.115 4.102v19.131c0 1.398.399 2.46 1.196 3.203.811.713 1.566 1.063 2.249 1.063h16.625l4.526 3.203h10.035l-4.128-3.188h14.775V16.551h24.241v10.963h7.857V4.438c0-.247-.028-.495-.057-.728-.057-1.834-1.452-3.363-3.231-3.523zM37.066 21.85l-7.003-.116.569 5.765-7.302-5.649H8.441V7.888c0-1.092.868-1.995 1.95-1.995h26.675V21.85z"/><path fill="var(--color1, #fff)" d="M109.574 3.797c0-1.995-1.58-3.611-3.53-3.611-.171 0-.342.015-.512.044V.186H75.043c.313 0 .84.16.854.16a3.29 3.29 0 0 1 2.007 1.907c.342.801.413 1.689.413 2.184v1.398h.114l-.014.015H99.74c1.096 0 1.979.903 1.979 2.024v3.465H78.332v5.198h23.301V27.5h7.943V4.453c0-.102-.014-.204-.014-.32s.014-.218.014-.335z"/></symbol><symbol id="icon-qha_logo-white" viewBox="0 0 191 32"><path fill="var(--color1, #fff)" d="M38.975 22.562l-7.388-.123.595 5.949-7.7-5.826h-15.7V8.165c0-1.134.919-2.052 2.053-2.052h28.141v16.45zM78.16.223h-2.005l-.023-.001H73.33v10.966H47.756V3.935A3.714 3.714 0 0 0 44.042.221H4.39c-1.442 0-2.542.443-3.299 1.328-.728.814-1.092 1.721-1.092 2.72v19.726c0 1.443.421 2.542 1.264 3.298.857.728 1.649 1.092 2.378 1.092h17.542l4.776 3.298H36.54l-4.353-3.293 15.569-.005V17.076H73.33v11.309h8.285V4.611c0-.261-.026-.508-.066-.747-.039-1.909-1.514-3.48-3.39-3.643z"/><path fill="var(--color1, #fff)" d="M115.469 3.944a3.721 3.721 0 0 0-3.721-3.721c-.186 0-.367.018-.545.044V.223h-1.195l-.022-.001H81.435l-2.381.001c.325 0 .891.162.899.165a3.431 3.431 0 0 1 2.121 1.965c.361.825.436 1.739.436 2.26v1.444h.118l-.008.01h22.495c1.151 0 2.084.933 2.084 2.084v3.572H82.51v5.356h24.585v11.309h8.375V4.614c0-.112-.01-.217-.018-.324.01-.114.018-.228.018-.344z"/><path fill="var(--color3, #aab9c8)" d="M124.6 28.314V11.258h3.432v1.649h.067c.359-.539.791-.981 1.296-1.329s1.149-.522 1.934-.522c.74 0 1.357.179 1.851.538s.896.752 1.211 1.178c.426-.471.897-.875 1.413-1.211s1.233-.505 2.153-.505c.426 0 .863.073 1.312.219s.852.387 1.211.723c.358.336.65.769.875 1.295s.336 1.172.336 1.935v13.086h-3.432V16.506c0-.627-.146-1.121-.437-1.48s-.706-.538-1.245-.538c-.651 0-1.1.202-1.346.605s-.37.987-.37 1.749v11.472h-3.431V16.506c0-.627-.146-1.121-.438-1.48s-.706-.538-1.245-.538c-.651 0-1.099.202-1.346.605s-.37.987-.37 1.749v11.472h-3.432zm24.155-9.924h3.364v-1.951c0-.65-.151-1.138-.454-1.463s-.712-.488-1.228-.488-.925.163-1.228.488-.454.813-.454 1.463v1.951zm6.796 2.692h-6.796v2.321c0 .538.152.953.454 1.245s.712.437 1.228.437c.65 0 1.082-.19 1.296-.572s.341-.762.387-1.144h3.432c0 1.503-.46 2.714-1.379 3.633-.449.471-.987.841-1.615 1.11s-1.334.404-2.119.404c-1.076 0-1.991-.224-2.742-.673s-1.328-1.043-1.732-1.783c-.247-.448-.415-.964-.505-1.547s-.135-1.222-.135-1.918v-5.618c0-.695.045-1.334.135-1.917s.257-1.099.505-1.548c.404-.74.981-1.334 1.732-1.783s1.666-.673 2.742-.673c.785 0 1.497.135 2.136.404s1.183.639 1.632 1.11c.896 1.009 1.346 2.277 1.346 3.802v4.71zm7.065 1.682c0 .695.135 1.256.404 1.682s.695.639 1.278.639c.516 0 .931-.196 1.245-.589s.471-.903.471-1.531v-6.627c0-.538-.163-.981-.488-1.329s-.735-.522-1.228-.522c-.651 0-1.093.202-1.329.605s-.353.875-.353 1.413v6.257zm3.398 5.55v-1.547c-.224.247-.438.477-.639.689s-.426.399-.673.555c-.247.157-.527.281-.841.37s-.684.135-1.11.135c-1.436 0-2.434-.538-2.994-1.615-.202-.381-.348-.852-.437-1.413s-.135-1.312-.135-2.254v-6.493c0-1.233.034-2.141.101-2.725.134-1.121.661-1.962 1.581-2.523.426-.291 1.065-.437 1.917-.437.673 0 1.273.151 1.8.454s.981.735 1.363 1.295h.067V4.361h3.431v23.953h-3.431zm7.367 0h3.431V11.258h-3.431v17.056zm0-20.521h3.431V4.362h-3.431v3.431zm13.86 13.188a5.656 5.656 0 0 0-.942-.101c-.74 0-1.374.174-1.901.522s-.791.981-.791 1.901c0 .651.156 1.177.471 1.581s.751.605 1.312.605c.583 0 1.037-.191 1.362-.572s.488-.92.488-1.615v-2.321zm0 7.333v-1.749h-.067c-.449.628-.903 1.11-1.363 1.447s-1.105.505-1.934.505c-.404 0-.813-.062-1.228-.185s-.813-.353-1.194-.69c-.382-.313-.69-.768-.925-1.362s-.353-1.362-.353-2.305c0-.964.078-1.811.235-2.54.156-.729.448-1.34.874-1.833.404-.471.953-.825 1.649-1.06s1.581-.353 2.658-.353h.37c.135 0 .257.012.37.034.112.023.246.034.404.034s.325.012.505.034v-1.783c0-.583-.123-1.065-.37-1.446s-.695-.572-1.346-.572c-.449 0-.858.146-1.228.438s-.611.718-.723 1.278h-3.331c.089-1.525.606-2.759 1.548-3.701.448-.448.987-.802 1.615-1.06s1.334-.387 2.119-.387c.718 0 1.39.113 2.019.336s1.177.561 1.648 1.009c.449.449.808 1.009 1.077 1.682s.403 1.458.403 2.355v11.875h-3.431z"/></symbol><symbol id="icon-qha_logo" viewBox="0 0 191 32"><path fill="var(--color5, #295982)" d="M38.975 22.562l-7.388-.123.595 5.949-7.7-5.826h-15.7V8.165c0-1.134.919-2.052 2.053-2.052h28.141v16.45zM78.16.223h-2.005l-.023-.001H73.33v10.966H47.756V3.935A3.714 3.714 0 0 0 44.042.221H4.39c-1.442 0-2.542.443-3.299 1.328-.728.814-1.092 1.721-1.092 2.72v19.726c0 1.443.421 2.542 1.264 3.298.857.728 1.649 1.092 2.378 1.092h17.542l4.776 3.298H36.54l-4.353-3.293 15.569-.005V17.076H73.33v11.309h8.285V4.611c0-.261-.026-.508-.066-.747-.039-1.909-1.514-3.48-3.39-3.643z"/><path fill="var(--color5, #295982)" d="M115.469 3.944a3.721 3.721 0 0 0-3.721-3.721c-.186 0-.367.018-.545.044V.223h-1.195l-.022-.001H81.435l-2.381.001c.325 0 .891.162.899.165a3.431 3.431 0 0 1 2.121 1.965c.361.825.436 1.739.436 2.26v1.444h.118l-.008.01h22.495c1.151 0 2.084.933 2.084 2.084v3.572H82.51v5.356h24.585v11.309h8.375V4.614c0-.112-.01-.217-.018-.324.01-.114.018-.228.018-.344z"/><path fill="var(--color3, #aab9c8)" d="M124.6 28.314V11.258h3.432v1.649h.067c.359-.539.791-.981 1.296-1.329s1.149-.522 1.934-.522c.74 0 1.357.179 1.851.538s.896.752 1.211 1.178c.426-.471.897-.875 1.413-1.211s1.233-.505 2.153-.505c.426 0 .863.073 1.312.219s.852.387 1.211.723c.358.336.65.769.875 1.295s.336 1.172.336 1.935v13.086h-3.432V16.506c0-.627-.146-1.121-.437-1.48s-.706-.538-1.245-.538c-.651 0-1.1.202-1.346.605s-.37.987-.37 1.749v11.472h-3.431V16.506c0-.627-.146-1.121-.438-1.48s-.706-.538-1.245-.538c-.651 0-1.099.202-1.346.605s-.37.987-.37 1.749v11.472h-3.432zm24.155-9.924h3.364v-1.951c0-.65-.151-1.138-.454-1.463s-.712-.488-1.228-.488-.925.163-1.228.488-.454.813-.454 1.463v1.951zm6.796 2.692h-6.796v2.321c0 .538.152.953.454 1.245s.712.437 1.228.437c.65 0 1.082-.19 1.296-.572s.341-.762.387-1.144h3.432c0 1.503-.46 2.714-1.379 3.633-.449.471-.987.841-1.615 1.11s-1.334.404-2.119.404c-1.076 0-1.991-.224-2.742-.673s-1.328-1.043-1.732-1.783c-.247-.448-.415-.964-.505-1.547s-.135-1.222-.135-1.918v-5.618c0-.695.045-1.334.135-1.917s.257-1.099.505-1.548c.404-.74.981-1.334 1.732-1.783s1.666-.673 2.742-.673c.785 0 1.497.135 2.136.404s1.183.639 1.632 1.11c.896 1.009 1.346 2.277 1.346 3.802v4.71zm7.065 1.682c0 .695.135 1.256.404 1.682s.695.639 1.278.639c.516 0 .931-.196 1.245-.589s.471-.903.471-1.531v-6.627c0-.538-.163-.981-.488-1.329s-.735-.522-1.228-.522c-.651 0-1.093.202-1.329.605s-.353.875-.353 1.413v6.257zm3.398 5.55v-1.547c-.224.247-.438.477-.639.689s-.426.399-.673.555c-.247.157-.527.281-.841.37s-.684.135-1.11.135c-1.436 0-2.434-.538-2.994-1.615-.202-.381-.348-.852-.437-1.413s-.135-1.312-.135-2.254v-6.493c0-1.233.034-2.141.101-2.725.134-1.121.661-1.962 1.581-2.523.426-.291 1.065-.437 1.917-.437.673 0 1.273.151 1.8.454s.981.735 1.363 1.295h.067V4.361h3.431v23.953h-3.431zm7.367 0h3.431V11.258h-3.431v17.056zm0-20.521h3.431V4.362h-3.431v3.431zm13.86 13.188a5.656 5.656 0 0 0-.942-.101c-.74 0-1.374.174-1.901.522s-.791.981-.791 1.901c0 .651.156 1.177.471 1.581s.751.605 1.312.605c.583 0 1.037-.191 1.362-.572s.488-.92.488-1.615v-2.321zm0 7.333v-1.749h-.067c-.449.628-.903 1.11-1.363 1.447s-1.105.505-1.934.505c-.404 0-.813-.062-1.228-.185s-.813-.353-1.194-.69c-.382-.313-.69-.768-.925-1.362s-.353-1.362-.353-2.305c0-.964.078-1.811.235-2.54.156-.729.448-1.34.874-1.833.404-.471.953-.825 1.649-1.06s1.581-.353 2.658-.353h.37c.135 0 .257.012.37.034.112.023.246.034.404.034s.325.012.505.034v-1.783c0-.583-.123-1.065-.37-1.446s-.695-.572-1.346-.572c-.449 0-.858.146-1.228.438s-.611.718-.723 1.278h-3.331c.089-1.525.606-2.759 1.548-3.701.448-.448.987-.802 1.615-1.06s1.334-.387 2.119-.387c.718 0 1.39.113 2.019.336s1.177.561 1.648 1.009c.449.449.808 1.009 1.077 1.682s.403 1.458.403 2.355v11.875h-3.431z"/></symbol><symbol id="icon-photo-camera" viewBox="0 0 35 32"><path fill="var(--color3, #aab9c8)" d="M17.6 12c-2.916 0-5.28 2.687-5.28 6 0 3.314 2.364 6 5.28 6s5.28-2.686 5.28-6c0-3.313-2.364-6-5.28-6zm14.08-6h-4.224c-.581 0-1.207-.512-1.39-1.138l-1.092-3.724C24.79.512 24.165 0 23.584 0H11.616c-.581 0-1.207.512-1.39 1.138L9.134 4.862C8.95 5.488 8.325 6 7.744 6H3.52C1.584 6 0 7.8 0 10v18c0 2.2 1.584 4 3.52 4h28.16c1.936 0 3.52-1.8 3.52-4V10c0-2.2-1.584-4-3.52-4zM17.6 28c-4.86 0-8.8-4.477-8.8-10s3.94-10 8.8-10c4.859 0 8.8 4.478 8.8 10s-3.941 10-8.8 10zm12.848-15.203c-.68 0-1.232-.626-1.232-1.4s.552-1.4 1.232-1.4c.681 0 1.232.627 1.232 1.4s-.552 1.4-1.232 1.4z"/></symbol><symbol id="icon-youtube-footer" viewBox="0 0 32 32"><path fill="var(--color6, #707579)" d="M13.046 19.446l7.163-3.705-7.163-3.742v7.458z"/><path fill="var(--color6, #707579)" d="M26.831 21.292a2.852 2.852 0 0 1-2.423 2.214l-.014.001c-2.794.308-5.625.308-8.431.308-2.831 0-5.649 0-8.443-.32a2.849 2.849 0 0 1-2.433-2.196l-.004-.019c-.394-1.698-.394-3.569-.394-5.317 0-1.76 0-3.618.394-5.329A2.852 2.852 0 0 1 7.506 8.42l.014-.001c2.794-.308 5.625-.32 8.443-.308 2.818 0 5.649 0 8.443.308 1.169.123 2.154 1.009 2.437 2.215.382 1.711.382 3.569.382 5.329 0 1.748 0 3.618-.394 5.329zM15.963 0a15.105 15.105 0 0 0-.443-.006C6.704-.006-.443 7.141-.443 15.957S6.704 31.92 15.52 31.92c.156 0 .311-.002.466-.007l-.023.001c8.623-.247 15.52-7.297 15.52-15.957S24.587.247 15.986.001L15.963 0z"/></symbol><symbol id="icon-vk-footer" viewBox="0 0 32 32"><path fill="var(--color6, #707579)" d="M24.049 17.686c.738.726 1.538 1.415 2.215 2.215.283.345.566.714.775 1.132.308.591.025 1.231-.492 1.268h-3.274a2.514 2.514 0 0 1-2.09-.859l-.003-.003c-.443-.455-.862-.935-1.292-1.415a4.024 4.024 0 0 0-.591-.529c-.455-.283-.837-.197-1.095.271-.246.468-.32.985-.345 1.526-.037.763-.271.972-1.034 1.009a8.332 8.332 0 0 1-4.72-1.031l.042.022a10.432 10.432 0 0 1-3.129-2.921l-.022-.033a39.157 39.157 0 0 1-4.048-7.129l-.1-.256c-.258-.578-.074-.886.566-.898a68.275 68.275 0 0 1 3.2 0c.443 0 .738.246.898.665a19.862 19.862 0 0 0 2.208 4.075l-.042-.062c.246.332.48.665.825.911.369.246.665.172.837-.246.123-.283.172-.566.197-.862.086-.985.086-1.969-.062-2.954-.086-.615-.431-1.009-1.046-1.12-.308-.062-.271-.172-.123-.357.271-.308.517-.492 1.009-.492h3.692c.591.111.714.369.8.96v4.098c0 .234.123.898.517 1.058.332.098.554-.16.738-.369.886-.935 1.526-2.043 2.092-3.2.246-.492.455-1.022.665-1.551.16-.394.406-.578.837-.578h3.569c.098 0 .197 0 .308.025.603.111.763.369.578.948-.295.923-.862 1.686-1.415 2.462-.591.812-1.231 1.6-1.822 2.437-.542.738-.492 1.132.172 1.785zM15.963 0a15.105 15.105 0 0 0-.443-.006C6.704-.006-.443 7.141-.443 15.957S6.704 31.92 15.52 31.92c.156 0 .311-.002.466-.007l-.023.001c8.623-.247 15.52-7.297 15.52-15.957S24.587.247 15.986.001L15.963 0z"/></symbol><symbol id="icon-twitter-footer" viewBox="0 0 32 32"><path fill="var(--color6, #707579)" d="M22.978 12.246v.48c0 4.825-3.668 10.388-10.4 10.388h-.014c-2.075 0-4.007-.61-5.627-1.661l.04.024a7.38 7.38 0 0 0 5.431-1.526l-.016.012a3.657 3.657 0 0 1-3.414-2.51l-.007-.026a3.682 3.682 0 0 0 1.675-.068l-.026.006a3.66 3.66 0 0 1-2.929-3.581v-.049a3.594 3.594 0 0 0 1.662.455A3.657 3.657 0 0 1 8.23 9.299l-.009.017c1.812 2.212 4.489 3.657 7.507 3.814l.025.001a3.643 3.643 0 0 1 3.546-4.48h.025-.001c1.046 0 1.994.443 2.658 1.145a7.297 7.297 0 0 0 2.372-.905l-.033.018a3.634 3.634 0 0 1-1.625 2.018 7.295 7.295 0 0 0 2.092-.566 7.145 7.145 0 0 1-1.809 1.883zM15.889 0C7.126 0 0 7.138 0 15.889c0 8.763 7.138 15.877 15.889 15.877 8.763 0 15.877-7.114 15.877-15.877S24.652 0 15.889 0z"/></symbol><symbol id="icon-facebook-footer" viewBox="0 0 32 32"><path fill="var(--color6, #707579)" d="M20.111 15.975h-2.622v9.6h-3.594v-9.6h-2.4v-3.298h2.4v-1.945c0-2.708.738-4.345 3.902-4.345h2.646v3.311h-1.649c-1.231 0-1.305.455-1.305 1.317v1.662h2.966zM15.975 0C7.149 0-.007 7.155-.007 15.982s7.155 15.982 15.982 15.982c8.826 0 15.982-7.155 15.982-15.982S24.802 0 15.975 0z"/></symbol><symbol id="icon-youtube" viewBox="0 0 33 32"><path d="M13.434 19.457l7.301-3.715-7.301-3.738v7.452z"/><path d="M16.397 0C7.415 0 .133 7.145.133 15.959s7.282 15.959 16.264 15.959 16.264-7.145 16.264-15.959S25.379 0 16.397 0zm11.082 21.286a2.883 2.883 0 0 1-2.483 2.214c-2.847.313-5.729.314-8.599.313-2.87.002-5.752 0-8.601-.313a2.878 2.878 0 0 1-2.481-2.214c-.4-1.707-.4-3.57-.4-5.327s.005-3.621.405-5.327a2.882 2.882 0 0 1 2.481-2.215c2.848-.312 5.73-.314 8.601-.312 2.869-.002 5.752 0 8.599.312a2.882 2.882 0 0 1 2.483 2.215c.4 1.707.397 3.57.397 5.327s-.001 3.62-.401 5.327z"/></symbol><symbol id="icon-twitter" viewBox="0 0 33 32"><path d="M16.376 0C7.448 0 .184 7.128.184 15.889s7.264 15.889 16.192 15.889c8.927 0 16.192-7.128 16.192-15.889S25.305 0 16.376 0zm7.223 12.252c.007.157.011.316.011.475 0 4.833-3.748 10.403-10.604 10.403a10.69 10.69 0 0 1-5.713-1.642c.292.034.588.051.889.051a7.574 7.574 0 0 0 4.629-1.565c-1.631-.029-3.007-1.087-3.482-2.54a3.845 3.845 0 0 0 1.682-.061c-1.705-.335-2.989-1.813-2.989-3.586l.001-.046a3.775 3.775 0 0 0 1.687.457 3.638 3.638 0 0 1-1.657-3.043c0-.671.183-1.299.504-1.839a10.65 10.65 0 0 0 7.681 3.822 3.585 3.585 0 0 1-.096-.834c0-2.019 1.668-3.657 3.726-3.657 1.072 0 2.039.444 2.72 1.155a7.504 7.504 0 0 0 2.367-.888 3.685 3.685 0 0 1-1.641 2.024 7.516 7.516 0 0 0 2.141-.575 7.42 7.42 0 0 1-1.858 1.891z"/></symbol><symbol id="icon-search1" viewBox="0 0 32 32"><path d="M0 16C0 7.163 7.163 0 16 0s16 7.163 16 16-7.163 16-16 16S0 24.837 0 16z"/><path fill="var(--color1, #fff)" d="M20.242 14.259a5.998 5.998 0 0 1-5.99 5.998 5.997 5.997 0 1 1 0-11.996 5.999 5.999 0 0 1 5.991 5.998zm-12.8 0a6.816 6.816 0 0 0 11.334 5.084l-.007.006 4.339 4.346a.445.445 0 0 0 .298.119h.009a.409.409 0 0 0 .288-.699l-4.354-4.346a6.817 6.817 0 1 0-11.907-4.534v.018-.001z"/></symbol><symbol id="icon-facebook" viewBox="0 0 33 32"><path d="M16.285 0C7.292 0 0 7.155 0 15.98s7.292 15.98 16.285 15.98S32.57 24.805 32.57 15.98C32.57 7.153 25.278 0 16.285 0zm4.209 15.978l-2.669.002-.002 9.588h-3.662V15.98h-2.443v-3.304l2.443-.002-.004-1.946c0-2.697.745-4.337 3.98-4.337h2.695v3.306h-1.686c-1.26 0-1.321.461-1.321 1.322l-.004 1.654h3.029l-.356 3.304z"/></symbol></defs></svg>