<svg xmlns="http://www.w3.org/2000/svg" xmlns:xlink="http://www.w3.org/1999/xlink" width="26" height="26" viewBox="0 0 26 26"><defs><path id="phfna" d="M683.67 4519.95v.39c0 3.92-2.98 8.44-8.45 8.44a8.41 8.41 0 0 1-4.55-1.33 6.02 6.02 0 0 0 4.4-1.23 2.97 2.97 0 0 1-2.78-2.06 3 3 0 0 0 1.34-.05 2.97 2.97 0 0 1-2.38-2.91v-.04c.4.22.86.36 1.35.37a2.97 2.97 0 0 1-.92-3.96 8.44 8.44 0 0 0 6.12 3.1 2.96 2.96 0 0 1 2.9-3.64c.85 0 1.62.36 2.16.93a5.93 5.93 0 0 0 1.9-.72c-.23.7-.7 1.28-1.32 1.64.6-.07 1.18-.23 1.7-.46-.39.6-.9 1.12-1.47 1.53zm-5.76-9.95c-7.12 0-12.91 5.8-12.91 12.91 0 7.12 5.8 12.9 12.91 12.9 7.12 0 12.9-5.78 12.9-12.9s-5.78-12.91-12.9-12.91z"/></defs><use fill="#707579" xlink:href="#phfna" transform="translate(-665 -4510)"/></svg>