<svg width="44" height="43" viewBox="0 0 44 43" xmlns="http://www.w3.org/2000/svg"><g id="Page-1" stroke="none" stroke-width="1" fill="none" fill-rule="evenodd"><g id="qha_design_home4" transform="translate(-452 -115)" fill="#AAB9C8" fill-rule="nonzero"><g id="header_3" transform="translate(-54 67)"><g id="header"><g id="socialblock" transform="translate(454 48)"><g id="twitter" transform="translate(52.247)"><path d="M21.758 0C9.76 0 0 9.578 0 21.35 0 33.122 9.76 42.7 21.758 42.7c11.996 0 21.757-9.578 21.757-21.35C43.515 9.578 33.755 0 21.758 0zm9.706 16.464c.01.211.015.425.015.638 0 6.494-5.036 13.98-14.25 13.98-2.828 0-5.46-.812-7.676-2.207.392.046.79.07 1.194.07 2.347 0 4.506-.787 6.22-2.104-2.19-.04-4.04-1.46-4.678-3.414a5.141 5.141 0 0 0 2.261-.082c-2.29-.45-4.016-2.437-4.016-4.819v-.062a5.06 5.06 0 0 0 2.268.614 4.887 4.887 0 0 1-2.227-4.09c0-.9.246-1.745.677-2.47a14.311 14.311 0 0 0 10.322 5.135 4.82 4.82 0 0 1-.13-1.12c0-2.714 2.243-4.914 5.008-4.914 1.44 0 2.74.596 3.655 1.551a10.112 10.112 0 0 0 3.181-1.193 4.954 4.954 0 0 1-2.205 2.72 10.105 10.105 0 0 0 2.877-.774 9.971 9.971 0 0 1-2.496 2.54z" id="Shape"/></g></g></g></g></g></g></svg>