<svg xmlns="http://www.w3.org/2000/svg" xmlns:xlink="http://www.w3.org/1999/xlink" width="26" height="26" viewBox="0 0 26 26"><defs><path id="59afa" d="M747.6 4525.8l5.82-3.01-5.82-3.04v6.06z"/><path id="59afb" d="M758.8 4527.3a2.31 2.31 0 0 1-1.98 1.8c-2.27.25-4.57.25-6.85.25-2.3 0-4.59 0-6.86-.26a2.31 2.31 0 0 1-1.98-1.8c-.32-1.38-.32-2.9-.32-4.32 0-1.43 0-2.94.32-4.33a2.31 2.31 0 0 1 1.98-1.8c2.27-.25 4.57-.26 6.86-.25 2.29 0 4.59 0 6.86.25.95.1 1.75.82 1.98 1.8.31 1.39.31 2.9.31 4.33 0 1.42 0 2.94-.32 4.33zm-8.83-17.3a12.97 12.97 0 1 0 0 25.93 12.97 12.97 0 0 0 0-25.93z"/></defs><g><g transform="translate(-737 -4510)"><g><use fill="#707579" xlink:href="#59afa"/></g><g><use fill="#707579" xlink:href="#59afb"/></g></g></g></svg>