<svg xmlns="http://www.w3.org/2000/svg" xmlns:xlink="http://www.w3.org/1999/xlink" width="36" height="30" viewBox="0 0 36 30"><defs><path id="qj0ra" d="M803.5 4967.692c-2.25 0-2.25-2.307-2.25-2.307v-23.077h27v23.077c0 1.062.32 1.798.76 2.307zm27-23.077V4940H799v25.385s0 4.615 4.5 4.615h28.125s3.375-.072 3.375-4.615v-20.77z"/><path id="qj0rb" d="M803.5 4949.23v-2.31H826v2.31z"/><path id="qj0rc" d="M815.88 4963.08v-2.31h7.88v2.31z"/><path id="qj0rd" d="M815.88 4958.46v-2.31h10.13v2.31z"/><path id="qj0re" d="M815.88 4953.85v-2.31h10.13v2.31z"/><path id="qj0rf" d="M803.5 4963.08v-11.54h10.13v11.54z"/></defs><g><g transform="translate(-799 -4940)"><g><use fill="#aab9c8" xlink:href="#qj0ra"/></g><g><use fill="#aab9c8" xlink:href="#qj0rb"/></g><g><use fill="#aab9c8" xlink:href="#qj0rc"/></g><g><use fill="#aab9c8" xlink:href="#qj0rd"/></g><g><use fill="#aab9c8" xlink:href="#qj0re"/></g><g><use fill="#aab9c8" xlink:href="#qj0rf"/></g></g></g></svg>