<?xml version="1.0" encoding="UTF-8"?>
<svg width="80px" height="15px" viewBox="0 0 80 15" version="1.1" xmlns="http://www.w3.org/2000/svg" xmlns:xlink="http://www.w3.org/1999/xlink">
    <!-- Generator: Sketch 51.3 (57544) - http://www.bohemiancoding.com/sketch -->
    <title> qha-radio</title>
    <desc>Created with Sketch.</desc>
    <defs></defs>
    <g id="Page-1" stroke="none" stroke-width="1" fill="none" fill-rule="evenodd">
        <g id="qha_design_home4" transform="translate(-1403.000000, -215.000000)" fill="#FFFFFF" fill-rule="nonzero">
            <g id="header_3" transform="translate(-54.000000, 67.000000)">
                <g id="header">
                    <g id="radio" transform="translate(1401.000000, 136.000000)">
                        <g id="-qha-radio">
                            <g transform="translate(56.000000, 12.032653)">
                                <g id="Group" transform="translate(55.379483, 1.910900)">
                                    <path d="M0.0400333611,10.9126066 L0.0400333611,3.15981043 L1.56797331,3.15981043 L1.56797331,3.98559242 C1.87489575,3.69895735 2.18181818,3.47374408 2.48206839,3.30995261 C2.7823186,3.14616114 3.14929108,3.0642654 3.58965805,3.0642654 L3.58965805,4.71582938 C3.44286906,4.65440758 3.28273561,4.627109 3.1292744,4.627109 C2.97581318,4.627109 2.79566305,4.65440758 2.61551293,4.70900474 C2.42869058,4.7636019 2.2618849,4.85914692 2.11509591,4.98881517 C1.95496247,5.11848341 1.82819016,5.29592417 1.72810676,5.50748815 C1.62802335,5.71905213 1.58131776,5.98521327 1.58131776,6.29914692 L1.58131776,10.8989573 L0.0400333611,10.8989573 L0.0400333611,10.9126066 Z" id="Shape"></path>
                                    <path d="M7.47956631,10.9126066 L7.47956631,10.1209479 L7.4528774,10.1209479 C7.25271059,10.4075829 7.05254379,10.6259716 6.84570475,10.7761137 C6.63886572,10.9262559 6.35195997,11.0081517 5.98498749,11.0081517 C5.80483736,11.0081517 5.62468724,10.9808531 5.43786489,10.9262559 C5.25104254,10.8716588 5.07756464,10.7624645 4.90408674,10.6123223 C4.73728107,10.4690047 4.5971643,10.2642654 4.49040867,9.99127962 C4.38365304,9.71829384 4.33027523,9.37023697 4.33027523,8.947109 C4.33027523,8.51033175 4.36363636,8.12132701 4.43703086,7.79374408 C4.50375313,7.45933649 4.63719766,7.18635071 4.82402002,6.96113744 C5.00417014,6.74957346 5.24437031,6.58578199 5.55796497,6.47658768 C5.86488741,6.36739336 6.25854879,6.31279621 6.73894912,6.31279621 C6.78565471,6.31279621 6.84570475,6.31279621 6.9057548,6.31279621 C6.96580484,6.31279621 7.01918265,6.31962085 7.07256047,6.3264455 C7.11926606,6.34009479 7.1793161,6.34009479 7.25271059,6.34009479 C7.31943286,6.34009479 7.39949958,6.34691943 7.47956631,6.35374408 L7.47956631,5.54161137 C7.47956631,5.27545024 7.42618849,5.05706161 7.31276063,4.8864455 C7.206005,4.71582938 7.0058382,4.627109 6.71226022,4.627109 C6.51209341,4.627109 6.33194329,4.69535545 6.16513761,4.8250237 C5.99833194,4.95469194 5.89157631,5.15260664 5.84487073,5.40511848 L4.36363636,5.40511848 C4.40366972,4.70900474 4.63052544,4.14938389 5.05087573,3.72625592 C5.25104254,3.52151659 5.4912427,3.36454976 5.77147623,3.24170616 C6.05170976,3.1256872 6.36530442,3.0642654 6.71226022,3.0642654 C7.03252711,3.0642654 7.33277731,3.11886256 7.60633862,3.21440758 C7.88657214,3.31677725 8.12677231,3.46691943 8.34028357,3.67165877 C8.54045038,3.8763981 8.70058382,4.12890995 8.8206839,4.43601896 C8.94078399,4.74312796 9.00083403,5.09800948 9.00083403,5.50748815 L9.00083403,10.905782 L7.47956631,10.905782 L7.47956631,10.9126066 Z M7.47956631,7.58218009 C7.31276063,7.55488152 7.17264387,7.53440758 7.05921601,7.53440758 C6.7322769,7.53440758 6.44537114,7.61630332 6.2118432,7.77327014 C5.97831526,7.93023697 5.85821518,8.21687204 5.85821518,8.64 C5.85821518,8.93345972 5.92493745,9.17232227 6.06505421,9.35658768 C6.20517098,9.54085308 6.39866555,9.62957346 6.64553795,9.62957346 C6.9057548,9.62957346 7.1059216,9.54085308 7.25271059,9.37023697 C7.39949958,9.19962085 7.46622185,8.95393365 7.46622185,8.63317536 L7.46622185,7.58218009 L7.47956631,7.58218009 Z" id="Shape"></path>
                                    <path d="M13.6580484,10.9126066 L13.6580484,10.2096682 C13.557965,10.3188626 13.4645538,10.4280569 13.3711426,10.5236019 C13.2844037,10.6191469 13.1843203,10.7078673 13.0708924,10.7761137 C12.9641368,10.8443602 12.8373645,10.905782 12.6972477,10.9467299 C12.5571309,10.9876777 12.3903253,11.0081517 12.2035029,11.0081517 C11.5629691,11.0081517 11.1226022,10.7624645 10.8757298,10.27109 C10.7889908,10.1004739 10.7222686,9.88208531 10.6822352,9.62957346 C10.6422018,9.37706161 10.6221852,9.03582938 10.6221852,8.60587678 L10.6221852,5.65763033 C10.6221852,5.09800948 10.6355296,4.68170616 10.6688907,4.42236967 C10.7289408,3.91052133 10.9624687,3.52834123 11.3694746,3.27582938 C11.5562969,3.14616114 11.8432027,3.07791469 12.2235196,3.07791469 C12.5237698,3.07791469 12.7906589,3.14616114 13.0241868,3.28265403 C13.2577148,3.41914692 13.4578816,3.61706161 13.6313595,3.86957346 L13.6580484,3.86957346 L13.6580484,0.0341232227 L15.1859883,0.0341232227 L15.1859883,10.9194313 L13.6580484,10.9194313 L13.6580484,10.9126066 Z M12.1434529,8.38748815 C12.1434529,8.7014218 12.2035029,8.96075829 12.323603,9.15184834 C12.4437031,9.34293839 12.6305254,9.44530806 12.8907423,9.44530806 C13.117598,9.44530806 13.3044204,9.35658768 13.4445371,9.17914692 C13.5846539,9.00170616 13.6513761,8.76966825 13.6513761,8.48303318 L13.6513761,5.47336493 C13.6513761,5.22767773 13.5779817,5.02976303 13.4378649,4.86597156 C13.2910759,4.70900474 13.1109258,4.627109 12.8907423,4.627109 C12.6038365,4.627109 12.4036697,4.71582938 12.2969141,4.90009479 C12.1901585,5.08436019 12.1367807,5.29592417 12.1367807,5.54161137 L12.1367807,8.38748815 L12.1434529,8.38748815 Z" id="Shape"></path>
                                    <path d="M16.9274395,1.58331754 L16.9274395,0.0204739336 L18.4553795,0.0204739336 L18.4553795,1.58331754 L16.9274395,1.58331754 Z M16.9274395,10.9126066 L16.9274395,3.15981043 L18.4553795,3.15981043 L18.4553795,10.9126066 L16.9274395,10.9126066 Z" id="Shape"></path>
                                    <path d="M20.0700584,5.76 C20.0700584,5.44606635 20.0900751,5.15260664 20.1301084,4.8864455 C20.1701418,4.62028436 20.2435363,4.38824645 20.3569641,4.18350711 C20.5371143,3.84909953 20.7906589,3.57611374 21.1242702,3.37137441 C21.4578816,3.16663507 21.8648874,3.0642654 22.3452877,3.0642654 C22.8256881,3.0642654 23.2326939,3.16663507 23.5663053,3.37137441 C23.8999166,3.57611374 24.1601334,3.84227488 24.3336113,4.18350711 C24.440367,4.38824645 24.5204337,4.62028436 24.5604671,4.8864455 C24.6005004,5.15260664 24.6205171,5.43924171 24.6205171,5.76 L24.6205171,8.31241706 C24.6205171,8.62635071 24.6005004,8.91981043 24.5604671,9.18597156 C24.5204337,9.4521327 24.4470392,9.68417062 24.3336113,9.88890995 C24.1534612,10.2233175 23.8999166,10.4963033 23.5663053,10.7010427 C23.2326939,10.905782 22.8256881,11.0081517 22.3452877,11.0081517 C21.8648874,11.0081517 21.4578816,10.905782 21.1242702,10.7010427 C20.7906589,10.4963033 20.5371143,10.2301422 20.3569641,9.88890995 C20.2502085,9.68417062 20.1701418,9.4521327 20.1301084,9.18597156 C20.0900751,8.91981043 20.0700584,8.63317536 20.0700584,8.31241706 L20.0700584,5.76 Z M21.5913261,8.55810427 C21.5913261,8.85156398 21.6580484,9.07677725 21.7914929,9.22009479 C21.9249374,9.37023697 22.1050876,9.43848341 22.3386155,9.43848341 C22.5654712,9.43848341 22.7522936,9.36341232 22.8857381,9.22009479 C23.0191827,9.06995261 23.0859049,8.85156398 23.0859049,8.55810427 L23.0859049,5.5143128 C23.0859049,5.22085308 23.0191827,4.99563981 22.8857381,4.85232227 C22.7522936,4.70218009 22.5721435,4.63393365 22.3386155,4.63393365 C22.1117598,4.63393365 21.9249374,4.70900474 21.7914929,4.85232227 C21.6580484,5.00246445 21.5913261,5.22085308 21.5913261,5.5143128 L21.5913261,8.55810427 Z" id="Shape"></path>
                                </g>
                                <g id="Group">
                                    <path d="M34.7823186,0.0545971564 L33.8949124,0.0545971564 C33.8949124,0.0545971564 33.8882402,0.0545971564 33.881568,0.0545971564 L32.6338616,0.0545971564 L32.6338616,5.03658768 L21.2777314,5.03658768 L21.2777314,1.74028436 C21.2777314,0.805308057 20.5371143,0.0545971564 19.6296914,0.0545971564 L19.3961635,0.0545971564 L19.0158465,0.0545971564 L10.6221852,0.0545971564 L2.00834028,0.0545971564 C1.36780651,0.0545971564 0.880733945,0.259336493 0.540450375,0.655165877 C0.220183486,1.02369668 0.0533778148,1.44 0.0533778148,1.89042654 L0.0533778148,10.8580095 C0.0533778148,11.5131754 0.240200167,12.0113744 0.613844871,12.3594313 C0.994161802,12.6938389 1.34778982,12.8576303 1.66805671,12.8576303 L9.46121768,12.8576303 L11.5829858,14.3590521 L16.2869058,14.3590521 L14.35196,12.864455 L17.3678065,12.864455 L19.5496247,12.864455 L21.2777314,12.864455 L21.2777314,7.72549763 L32.6405338,7.72549763 L32.6405338,12.864455 L36.323603,12.864455 L36.323603,3.08473934 L36.323603,2.04739336 C36.323603,1.93137441 36.3102585,1.81535545 36.2969141,1.70616114 C36.2702252,0.846255924 35.616347,0.129668246 34.7823186,0.0545971564 Z M17.3744787,10.2096682 L14.0917431,10.1550711 L14.3586322,12.8576303 L10.9357798,10.2096682 L7.36613845,10.2096682 L3.95663053,10.2096682 L3.95663053,3.66483412 C3.95663053,3.15298578 4.36363636,2.72985782 4.8707256,2.72985782 L10.6221852,2.72985782 L17.3744787,2.72985782 L17.3744787,10.2096682 Z" id="Shape"></path>
                                    <path d="M51.3628023,1.747109 C51.3628023,0.812132701 50.6221852,0.0545971564 49.7080901,0.0545971564 C49.6280234,0.0545971564 49.5479566,0.0614218009 49.4678899,0.07507109 L49.4678899,0.0545971564 L48.9341118,0.0545971564 C48.9341118,0.0545971564 48.9274395,0.0545971564 48.9274395,0.0545971564 L39.6797331,0.0545971564 L36.7105922,0.0545971564 L36.3703086,0.0545971564 L36.2368641,0.0545971564 C36.2368641,0.0545971564 35.1292744,0.0545971564 35.17598,0.0545971564 C35.322769,0.0545971564 35.5696414,0.129668246 35.5763136,0.129668246 C36.0033361,0.272985782 36.3502919,0.60056872 36.5170976,1.02369668 C36.677231,1.39905213 36.7105922,1.81535545 36.7105922,2.04739336 L36.7105922,2.70255924 L36.76397,2.70255924 C36.76397,2.70255924 36.76397,2.70255924 36.7572977,2.70938389 L46.7522936,2.70938389 C47.266055,2.70938389 47.6797331,3.13251185 47.6797331,3.65800948 L47.6797331,5.28227488 L36.7172644,5.28227488 L36.7172644,7.71867299 L47.6396997,7.71867299 L47.6396997,12.8576303 L51.3628023,12.8576303 L51.3628023,2.05421801 C51.3628023,2.0064455 51.3561301,1.95867299 51.3561301,1.90407583 C51.3561301,1.84947867 51.3628023,1.80170616 51.3628023,1.747109 Z" id="Shape"></path>
                                </g>
                            </g>
                        </g>
                    </g>
                </g>
            </g>
        </g>
    </g>
</svg>