<?xml version="1.0" encoding="UTF-8"?>
<svg width="322px" height="54px" viewBox="0 0 322 54" version="1.1" xmlns="http://www.w3.org/2000/svg" xmlns:xlink="http://www.w3.org/1999/xlink">
    <!-- Generator: Sketch 51.3 (57544) - http://www.bohemiancoding.com/sketch -->
    <title> qha_logo</title>
    <desc>Created with Sketch.</desc>
    <defs></defs>
    <g id="Page-1" stroke="none" stroke-width="1" fill="none" fill-rule="evenodd">
        <g id="qha_design_home4" transform="translate(-800.000000, -108.000000)">
            <g id="header_3" transform="translate(-54.000000, 67.000000)">
                <g id="header">
                    <g id="-qha_logo" transform="translate(854.000000, 41.000000)">
                        <g id="qha_logo_brand">
                            <g id="biglogo">
                                <path d="M65.7703838,38.0732651 L53.302805,37.8653023 L54.3069828,47.9047814 L41.3129516,38.0732651 L14.8190328,38.0732651 L14.8190328,13.777786 C14.8190328,11.8649302 16.3697566,10.3147535 18.2826677,10.3147535 L65.7703838,10.3147535 L65.7703838,38.0732651 Z M131.89542,0.376744186 L128.512661,0.376744186 C128.500103,0.376744186 128.487042,0.375237209 128.474484,0.375237209 L123.745956,0.375237209 L123.745956,18.8809116 L80.5899189,18.8809116 L80.5899189,6.64225116 C80.5899189,3.18122791 77.7838471,0.375237209 74.3227239,0.375237209 L7.40951638,0.375237209 C4.97567863,0.375237209 3.12003432,1.12269767 1.8430858,2.61611163 C0.614361934,3.98946977 0,5.52005581 0,7.20686512 L0,40.4944744 C0,42.9287442 0.710308892,44.7838326 2.1324337,46.0602419 C3.57816849,47.2894326 4.91590016,47.9037767 6.14462402,47.9037767 L35.7470234,47.9037767 L43.8070702,53.4695442 L61.6622465,53.4695442 L54.3165273,47.911814 L65.7703838,47.9037767 L80.5899189,47.9037767 L80.5899189,28.8204279 L123.745956,28.8204279 L123.745956,47.9037767 L137.727086,47.9037767 L137.727086,7.78453953 C137.727086,7.34349767 137.682378,6.92807442 137.615566,6.52470698 C137.549257,3.30379535 135.060665,0.653023256 131.89542,0.376744186 Z" id="Fill-1" fill="#ffffff"></path>
                                <path d="M194.854206,6.65581395 C194.854206,3.18826047 192.042608,0.376744186 188.574955,0.376744186 C188.261495,0.376744186 187.956072,0.406883721 187.65517,0.451590698 L187.65517,0.376744186 L185.639279,0.376744186 C185.626218,0.376744186 185.61366,0.375237209 185.601604,0.375237209 L137.421161,0.375237209 C137.421161,0.375237209 133.211048,0.376744186 133.40244,0.376744186 C133.950493,0.376744186 134.905944,0.649506977 134.919507,0.655032558 C136.546084,1.17795349 137.85669,2.4016186 138.498178,3.97138605 C139.107516,5.36433488 139.234106,6.90546977 139.234106,7.78453953 L139.234106,10.2208186 L139.433535,10.2208186 C139.429014,10.2258419 139.424995,10.2318698 139.420474,10.2373953 L177.380808,10.2373953 C179.323357,10.2373953 180.897189,11.8116837 180.897189,13.7536744 L180.897189,19.7815814 L139.234106,19.7815814 L139.234106,28.8204279 L180.721872,28.8204279 L180.721872,47.9037767 L194.854206,47.9037767 L194.854206,7.78453953 C194.854206,7.59616744 194.836624,7.41834419 194.824568,7.23700465 C194.84215,7.04511628 194.854206,6.85222326 194.854206,6.65581395" id="Fill-2" fill="#ffffff"></path>
                                <path d="M210.262484,47.780707 L210.262484,18.9984558 L216.05346,18.9984558 L216.05346,21.7803349 L216.166487,21.7803349 C216.771807,20.8716279 217.501204,20.1246698 218.352671,19.5379535 C219.204137,18.9512372 220.291704,18.6578791 221.616877,18.6578791 C222.865694,18.6578791 223.907045,18.9607814 224.739925,19.5660837 C225.5718,20.1718884 226.252471,20.8344558 226.783445,21.5532837 C227.501791,20.7581023 228.296493,20.0769488 229.167551,19.5093209 C230.038106,18.941693 231.248746,18.6578791 232.800977,18.6578791 C233.519323,18.6578791 234.257763,18.7809488 235.015292,19.026586 C235.771816,19.2732279 236.452989,19.6796093 237.058811,20.2472372 C237.663629,20.8148651 238.155922,21.5442419 238.535189,22.4328558 C238.912949,23.3229767 239.102833,24.411014 239.102833,25.6974698 L239.102833,47.780707 L233.311856,47.780707 L233.311856,27.8544558 C233.311856,26.7955535 233.06571,25.9621953 232.573919,25.3563907 C232.081626,24.7515907 231.381866,24.448186 230.473635,24.448186 C229.375017,24.448186 228.617991,24.7892651 228.202053,25.4699163 C227.785111,26.1515721 227.578147,27.1361302 227.578147,28.4220837 L227.578147,47.780707 L221.787672,47.780707 L221.787672,27.8544558 C221.787672,26.7955535 221.541023,25.9621953 221.049232,25.3563907 C220.557441,24.7515907 219.857179,24.448186 218.948446,24.448186 C217.850331,24.448186 217.093807,24.7892651 216.677869,25.4699163 C216.260927,26.1515721 216.05346,27.1361302 216.05346,28.4220837 L216.05346,47.780707 L210.262484,47.780707" id="Fill-3" fill="#AAB9C8"></path>
                                <path d="M251.024368,31.0336744 L256.701314,31.0336744 L256.701314,27.7409302 C256.701314,26.6438512 256.446125,25.8205395 255.934743,25.2714977 C255.424365,24.7234605 254.733145,24.448186 253.86259,24.448186 C252.991532,24.448186 252.301819,24.7234605 251.790437,25.2714977 C251.280059,25.8205395 251.024368,26.6438512 251.024368,27.7409302 L251.024368,31.0336744 Z M262.49229,35.5752 L251.024368,35.5752 L251.024368,39.4923349 C251.024368,40.4010419 251.280059,41.1012837 251.790437,41.5930605 C252.301819,42.0848372 252.991532,42.3309767 253.86259,42.3309767 C254.960203,42.3309767 255.688596,42.0099907 256.048774,41.3660093 C256.407947,40.7225302 256.624958,40.0795535 256.701314,39.4355721 L262.49229,39.4355721 C262.49229,41.971814 261.715672,44.0152744 260.164446,45.5669581 C259.406917,46.3616372 258.498686,46.9860279 257.439251,47.4401302 C256.379314,47.8942326 255.187261,48.1212837 253.86259,48.1212837 C252.046128,48.1212837 250.503441,47.7435349 249.235535,46.9860279 C247.967629,46.2290233 246.994094,45.2258791 246.312418,43.9770977 C245.895476,43.2205953 245.611654,42.3505674 245.460952,41.3660093 C245.309245,40.3824558 245.233894,39.3034605 245.233894,38.1300279 L245.233894,28.6491349 C245.233894,27.476707 245.309245,26.398214 245.460952,25.4136558 C245.611654,24.4296 245.895476,23.5595721 246.312418,22.8020651 C246.994094,21.5532837 247.967629,20.5506419 249.235535,19.7931349 C250.503441,19.0366326 252.046128,18.6578791 253.86259,18.6578791 C255.187261,18.6578791 256.38936,18.8849302 257.467885,19.3390326 C258.546911,19.7931349 259.464184,20.4175256 260.221713,21.2122047 C261.734259,22.9155907 262.49229,25.0539907 262.49229,27.6274047 L262.49229,35.5752 Z" id="Fill-4" fill="#AAB9C8"></path>
                                <path d="M274.413825,38.4138419 C274.413825,39.5867721 274.641385,40.5336558 275.095501,41.2519814 C275.549114,41.971814 276.267963,42.3309767 277.252549,42.3309767 C278.122602,42.3309767 278.822864,41.9999442 279.353335,41.3373767 C279.8823,40.675814 280.148037,39.8143256 280.148037,38.7539163 L280.148037,27.5706419 C280.148037,26.6624372 279.872755,25.9154791 279.324702,25.3282605 C278.775644,24.7420465 278.084424,24.448186 277.252549,24.448186 C276.153931,24.448186 275.407454,24.7892651 275.010103,25.4699163 C274.612752,26.1515721 274.413825,26.9462512 274.413825,27.8544558 L274.413825,38.4138419 Z M280.148037,47.780707 L280.148037,45.1696186 C279.769273,45.5860465 279.409598,45.9738419 279.069011,46.3330047 C278.728424,46.6931721 278.34966,47.0056186 277.933722,47.2698419 C277.51678,47.5350698 277.044078,47.7435349 276.514109,47.8942326 C275.983638,48.0449302 275.359229,48.1212837 274.641385,48.1212837 C272.218599,48.1212837 270.534253,47.2130791 269.588346,45.3961674 C269.24776,44.753693 269.001111,43.9585116 268.850409,43.0121302 C268.698702,42.0662512 268.622849,40.7983814 268.622849,39.2085209 L268.622849,28.2517953 C268.622849,26.1711628 268.679613,24.6380651 268.793644,23.653507 C269.0202,21.7617488 269.909342,20.3421767 271.462075,19.3957953 C272.180421,18.9045209 273.258945,18.6578791 274.697647,18.6578791 C275.833438,18.6578791 276.845151,18.9130605 277.734796,19.4239256 C278.623435,19.935293 279.390509,20.6641674 280.034509,21.6100465 L280.148037,21.6100465 L280.148037,7.36057674 L285.938512,7.36057674 L285.938512,47.780707 L280.148037,47.780707 Z" id="Fill-5" fill="#AAB9C8"></path>
                                <path d="M292.580452,47.780707 L298.370927,47.780707 L298.370927,18.9984558 L292.580452,18.9984558 L292.580452,47.780707 Z M292.580452,13.1508837 L298.370927,13.1508837 L298.370927,7.36057674 L292.580452,7.36057674 L292.580452,13.1508837 Z" id="Fill-6" fill="#AAB9C8"></path>
                                <path d="M315.969407,35.4049116 C315.32591,35.291386 314.795941,35.2346233 314.380003,35.2346233 C313.131186,35.2346233 312.061201,35.5279814 311.172562,36.1146977 C310.282917,36.7019163 309.838346,37.7703628 309.838346,39.3220465 C309.838346,40.4201302 310.102075,41.3087442 310.633048,41.9904 C311.163017,42.6715535 311.900955,43.0121302 312.847363,43.0121302 C313.830443,43.0121302 314.597516,42.6906419 315.146072,42.0471628 C315.694627,41.404186 315.969407,40.4954791 315.969407,39.3220465 L315.969407,35.4049116 Z M315.969407,47.780707 L315.969407,44.8285395 L315.856381,44.8285395 C315.098349,45.8884465 314.331778,46.702214 313.556668,47.2698419 C312.780552,47.8374698 311.691981,48.1212837 310.292462,48.1212837 C309.611289,48.1212837 308.920069,48.0168 308.220309,47.8093395 C307.519544,47.6018791 306.847916,47.2130791 306.205423,46.6449488 C305.560418,46.116 305.040998,45.3494512 304.643647,44.346307 C304.245794,43.3436651 304.047872,42.0471628 304.047872,40.4573023 C304.047872,38.8307721 304.179485,37.4016558 304.445223,36.1714605 C304.708952,34.9417674 305.201747,33.910493 305.920596,33.0776372 C306.602774,32.2824558 307.529089,31.6861953 308.702555,31.2888558 C309.87552,30.8915163 311.370986,30.6930977 313.18795,30.6930977 C313.37683,30.6930977 313.585301,30.6930977 313.811856,30.6930977 C314.039417,30.6930977 314.246381,30.7126884 314.436768,30.7498605 C314.625647,30.7880372 314.852705,30.8066233 315.117941,30.8066233 C315.382172,30.8066233 315.666496,30.826214 315.969407,30.863386 L315.969407,27.8544558 C315.969407,26.8709023 315.761438,26.0571349 315.344998,25.4136558 C314.928559,24.7701767 314.171532,24.448186 313.073919,24.448186 C312.316892,24.448186 311.626677,24.6948279 311.001766,25.1866047 C310.377357,25.6788837 309.970462,26.398214 309.781582,27.3435907 L304.160899,27.3435907 C304.311601,24.7701767 305.182658,22.6885395 306.772565,21.0986791 C307.529089,20.3421767 308.43732,19.7459163 309.49776,19.3104 C310.556693,18.8758884 311.748746,18.6578791 313.073919,18.6578791 C314.285061,18.6578791 315.420349,18.8477581 316.480789,19.225507 C317.539722,19.6042605 318.467544,20.1718884 319.262246,20.9283907 C320.019273,21.6858977 320.625095,22.6317767 321.079211,23.7670326 C321.533326,24.9022884 321.759881,26.2274233 321.759881,27.7409302 L321.759881,47.780707 L315.969407,47.780707 Z" id="Fill-7" fill="#AAB9C8"></path>
                            </g>
                        </g>
                    </g>
                </g>
            </g>
        </g>
    </g>
</svg>