<svg xmlns="http://www.w3.org/2000/svg" xmlns:xlink="http://www.w3.org/1999/xlink" width="22" height="22" viewBox="0 0 22 22"><defs><path id="qxdaa" d="M436.755 3287.886c-.22.312-.703.7-1.313 1.175l-.671.464c-.369.286-.591.556-.675.821-.065.209-.098.264-.103.689l-.001.108h-2.563l.007-.217c.031-.892.053-1.416.423-1.85.58-.68 1.858-1.503 1.912-1.538.184-.138.338-.295.453-.463.27-.371.388-.663.388-.95 0-.398-.118-.766-.352-1.094-.224-.317-.65-.477-1.268-.477-.612 0-1.03.194-1.281.593a2.38 2.38 0 0 0-.388 1.279v.11h-2.643l.005-.115c.068-1.618.646-2.784 1.716-3.464.673-.433 1.51-.653 2.487-.653 1.278 0 2.357.311 3.207.924.86.62 1.297 1.55 1.297 2.763 0 .678-.214 1.316-.637 1.895zm-3.935 7.82l-.06-.001c-.936-.028-1.595-.72-1.569-1.644.026-.909.702-1.568 1.606-1.568h.055c.961.03 1.613.714 1.586 1.665-.026.911-.691 1.548-1.618 1.548zm.033-17.705c-6.075.081-10.933 5.072-10.852 11.147.081 6.072 5.072 10.932 11.146 10.851 6.074-.082 10.933-5.073 10.852-11.147-.081-6.073-5.072-10.932-11.146-10.851z"/></defs><g><g transform="translate(-422 -3278)"><use fill="#aab9c8" xlink:href="#qxdaa"/></g></g></svg>