<svg xmlns="http://www.w3.org/2000/svg" xmlns:xlink="http://www.w3.org/1999/xlink" width="30" height="28" viewBox="0 0 30 28"><defs><path id="6itta" d="M844.695 3949.513a1.23 1.23 0 0 0 1.226-1.232v-5.019c0-.68-.55-1.232-1.226-1.232-1.9 0-3.61.407-5.079 1.208-1.46.797-2.705 1.94-3.7 3.398-.967 1.418-1.7 3.13-2.177 5.088-.465 1.91-.7 4.072-.7 6.427v10.597c0 .68.548 1.231 1.225 1.231h10.43a1.23 1.23 0 0 0 1.226-1.231v-10.597a1.23 1.23 0 0 0-1.225-1.232h-3.857c.18-4.916 1.475-7.406 3.857-7.406zm-15.812-6.25v5.018c0 .68-.55 1.232-1.226 1.232-2.416 0-3.73 2.49-3.913 7.406h3.913a1.23 1.23 0 0 1 1.226 1.232v10.597c0 .68-.55 1.231-1.226 1.231h-10.431a1.229 1.229 0 0 1-1.226-1.231v-10.597c0-2.356.236-4.519.701-6.428.478-1.957 1.21-3.669 2.177-5.087.995-1.457 2.24-2.601 3.7-3.398 1.47-.801 3.179-1.208 5.08-1.208.676 0 1.225.551 1.225 1.232z"/></defs><g><g transform="translate(-816 -3942)"><use fill="#ebeff2" xlink:href="#6itta"/></g></g></svg>