<svg xmlns="http://www.w3.org/2000/svg" xmlns:xlink="http://www.w3.org/1999/xlink" width="248" height="86" viewBox="0 0 248 86"><defs><path id="9c0ca" d="M391.494 4143.202c0-38.362 21.64-69.46 48.335-69.46s48.336 31.098 48.336 69.46c0 38.361-21.64 69.46-48.336 69.46-26.694 0-48.335-31.099-48.335-69.46z"/><path id="9c0cb" d="M391.494 4143.202c0-49.987 28.198-90.508 62.982-90.508 34.785 0 62.983 40.521 62.983 90.508 0 49.986-28.198 90.508-62.983 90.508-34.784 0-62.982-40.522-62.982-90.508z"/><path id="9c0cc" d="M377.824 4141.798c0-68.585 38.69-124.185 86.417-124.185 47.727 0 86.418 55.6 86.418 124.185 0 68.586-38.69 124.186-86.418 124.186-47.727 0-86.417-55.6-86.417-124.186z"/><path id="9c0cd" d="M424 4142.5c0-11.598 9.402-21 21-21s21 9.402 21 21-9.402 21-21 21-21-9.402-21-21z"/><path id="9c0ce" d="M412 4107a8 8 0 0 1 8-8h233a8 8 0 0 1 8 8v69.597a8 8 0 0 1-8 8H420a8 8 0 0 1-8-8z"/><path id="9c0cp" d="M440.666 4139.674a.566.566 0 0 1-.568.565.566.566 0 0 1-.568-.565v-2.261c0-.313.254-.565.568-.565.314 0 .568.252.568.565zm0 7.348a.566.566 0 0 1-.568.565.566.566 0 0 1-.568-.565v-2.261c0-.313.254-.565.568-.565.314 0 .568.252.568.565zm7.894-17.522c-.313 0-.623.086-.897.251a.528.528 0 0 0-.074.053l-7.699 6.479h-6.042a.566.566 0 0 0-.568.565v10.739c0 .313.254.565.568.565h6.029l7.694 7.03c.029.025.06.048.092.067.274.165.585.251.897.251.973 0 1.765-.8 1.765-1.784v-22.432c0-.984-.792-1.784-1.765-1.784z"/><path id="9c0cq" d="M457.725 4142.218c0-3.375-2.278-6.388-5.54-7.326a.564.564 0 1 0-.315 1.086c2.779.799 4.72 3.365 4.72 6.24 0 2.876-1.941 5.442-4.719 6.24a.565.565 0 1 0 .315 1.087c3.261-.939 5.539-3.951 5.539-7.327z"/><path id="9c0cr" d="M551.27 4149.53v-9.69h1.91v1.032c.384-.359.767-.64 1.143-.845.375-.205.834-.307 1.384-.307v2.064a1.502 1.502 0 0 0-.575-.11c-.192 0-.417.034-.643.102a1.63 1.63 0 0 0-.625.35c-.2.162-.359.384-.484.648s-.183.597-.183.99v5.75h-1.927z"/><path id="9c0cs" d="M560.577 4145.367a3.505 3.505 0 0 0-.526-.06c-.409 0-.767.103-1.059.3-.292.195-.442.554-.442 1.083 0 .366.083.665.258.895.176.23.417.342.726.342.325 0 .576-.111.759-.325.184-.213.267-.52.267-.92v-1.315zm0 4.163v-.99h-.034c-.25.36-.5.632-.759.82-.258.187-.617.29-1.076.29-.225 0-.45-.034-.684-.103-.233-.068-.45-.204-.667-.392-.208-.18-.383-.435-.517-.776-.133-.341-.2-.777-.2-1.305 0-.546.042-1.033.133-1.442a2.3 2.3 0 0 1 .484-1.04 2.06 2.06 0 0 1 .918-.607c.383-.136.875-.204 1.476-.204h.208c.075 0 .142.008.209.017.058.017.133.017.225.017.083 0 .184.008.284.017v-1.015c0-.333-.067-.606-.209-.82-.133-.213-.384-.323-.75-.323-.25 0-.476.085-.684.247-.209.162-.342.41-.4.725h-1.852c.05-.87.333-1.57.859-2.099.25-.255.55-.452.9-.605.35-.145.743-.222 1.176-.222.4 0 .776.068 1.118.188.35.128.65.315.918.571.25.256.45.572.6.956.15.384.225.827.225 1.339v6.748h-1.901z"/><path id="9c0ct" d="M566.402 4146.372c0 .392.075.716.226.955.15.239.386.367.713.367.285 0 .52-.11.696-.333.176-.222.26-.512.26-.87v-3.762c0-.307-.093-.554-.269-.76a.905.905 0 0 0-.687-.298c-.36 0-.612.111-.747.341-.134.23-.2.495-.2.802v3.558zm1.893 3.156v-.879c-.125.137-.242.273-.359.393-.108.12-.233.23-.375.315a1.824 1.824 0 0 1-.467.214 2.226 2.226 0 0 1-.617.077c-.801 0-1.351-.308-1.66-.922a2.738 2.738 0 0 1-.242-.802 8.571 8.571 0 0 1-.075-1.28v-3.685c0-.7.017-1.22.058-1.544.075-.64.367-1.117.876-1.433.234-.162.592-.247 1.068-.247.375 0 .709.085 1 .256.292.17.543.418.76.733h.033v-4.794h1.91v13.607h-1.91z"/><path id="9c0cu" d="M572.38 4149.535v-9.7h1.91v9.7zm0-11.671v-1.954h1.91v1.954z"/><path id="9c0cv" d="M578.212 4146.587c0 .367.083.649.25.828.167.187.392.273.684.273.283 0 .517-.094.684-.273.166-.188.25-.46.25-.828v-3.804c0-.367-.084-.649-.25-.828-.167-.188-.392-.273-.684-.273-.284 0-.517.094-.684.273-.167.188-.25.46-.25.828zm-1.902-3.497c0-.393.025-.76.075-1.092a2.64 2.64 0 0 1 1.243-1.894c.417-.256.926-.384 1.526-.384s1.11.128 1.526.384c.417.256.743.589.96 1.015.133.256.233.546.283.879.05.332.075.69.075 1.092v3.19c0 .393-.025.76-.075 1.092a2.64 2.64 0 0 1-1.243 1.894c-.417.256-.925.384-1.526.384-.6 0-1.11-.128-1.526-.384a2.582 2.582 0 0 1-.96-1.015 2.776 2.776 0 0 1-.283-.879 7.31 7.31 0 0 1-.075-1.092z"/><path id="9c0cw" d="M503.721 4146.264l-4.103-.068.334 3.378-4.279-3.31h-8.724v-8.181c0-.64.509-1.169 1.143-1.169h15.629v9.35zm21.76-12.694h-1.11-1.576v6.227H508.6v-4.12c0-1.169-.925-2.107-2.06-2.107h-22.026c-.801 0-1.41.256-1.835.75-.4.461-.609.982-.609 1.545v11.21c0 .818.234 1.441.7 1.876.476.418.918.623 1.318.623h9.742l2.652 1.877h5.88l-2.419-1.869h8.657v-6.423h14.204v6.423h4.604v-13.521c0-.145-.017-.29-.034-.427-.033-1.074-.85-1.97-1.893-2.064z"/><path id="9c0cx" d="M546.205 4135.686c0-1.17-.925-2.116-2.068-2.116-.1 0-.2.009-.3.026v-.026h-16.539-1.326c.183 0 .492.094.5.094.534.179.968.588 1.176 1.117.2.47.242.99.242 1.28v.819h.067l-.009.008h12.494c.642 0 1.16.53 1.16 1.186v2.03h-13.704v3.046h13.653v6.424h4.654v-13.504c0-.06-.008-.12-.008-.188s.008-.128.008-.196z"/><linearGradient id="9c0cf" x1="536.5" x2="536.5" y1="4101.96" y2="4182.35" gradientUnits="userSpaceOnUse"><stop offset="0" stop-color="#3b83a8"/><stop offset="1" stop-color="#236092"/></linearGradient><mask id="9c0ci" width="2" height="2" x="-1" y="-1"><path fill="#fff" d="M391 4073h98v140h-98z"/><use xlink:href="#9c0ca"/></mask><filter id="9c0ch" width="129" height="168" x="377" y="4059" filterUnits="userSpaceOnUse"><feOffset dx="3" in="SourceGraphic" result="FeOffset1044Out"/><feGaussianBlur in="FeOffset1044Out" result="FeGaussianBlur1045Out" stdDeviation="1.6 1.6"/></filter><mask id="9c0ck" width="2" height="2" x="-1" y="-1"><path fill="#fff" d="M391 4052h127v182H391z"/><use xlink:href="#9c0cb"/></mask><filter id="9c0cj" width="158" height="210" x="377" y="4038" filterUnits="userSpaceOnUse"><feOffset dx="3" in="SourceGraphic" result="FeOffset1060Out"/><feGaussianBlur in="FeOffset1060Out" result="FeGaussianBlur1061Out" stdDeviation="1.6 1.6"/></filter><mask id="9c0cm" width="2" height="2" x="-1" y="-1"><path fill="#fff" d="M377 4017h174v249H377z"/><use xlink:href="#9c0cc"/></mask><filter id="9c0cl" width="205" height="277" x="363" y="4003" filterUnits="userSpaceOnUse"><feOffset dx="3" in="SourceGraphic" result="FeOffset1076Out"/><feGaussianBlur in="FeOffset1076Out" result="FeGaussianBlur1077Out" stdDeviation="1.6 1.6"/></filter><mask id="9c0co" width="2" height="2" x="-1" y="-1"><path fill="#fff" d="M424 4121h42v43h-42z"/><use xlink:href="#9c0cd"/></mask><filter id="9c0cn" width="73" height="71" x="410" y="4107" filterUnits="userSpaceOnUse"><feOffset dx="3" in="SourceGraphic" result="FeOffset1094Out"/><feGaussianBlur in="FeOffset1094Out" result="FeGaussianBlur1095Out" stdDeviation="1.6 1.6"/></filter><clipPath id="9c0cg"><use xlink:href="#9c0ce"/></clipPath></defs><g><g transform="translate(-413 -4099)"><g><g><use fill="url(#9c0cf)" xlink:href="#9c0ce"/></g><g clip-path="url(#9c0cg)"><g filter="url(#9c0ch)"><use fill="none" stroke-opacity=".05" stroke-width="0" mask="url(&quot;#9c0ci&quot;)" xlink:href="#9c0ca"/><use fill="#236092" fill-opacity=".05" xlink:href="#9c0ca"/></g><use fill="#4b8bc0" fill-opacity=".39" xlink:href="#9c0ca"/></g><g clip-path="url(#9c0cg)"><g filter="url(#9c0cj)"><use fill="none" stroke-opacity=".05" stroke-width="0" mask="url(&quot;#9c0ck&quot;)" xlink:href="#9c0cb"/><use fill="#236092" fill-opacity=".05" xlink:href="#9c0cb"/></g><use fill="#4b8bc0" fill-opacity=".39" xlink:href="#9c0cb"/></g><g clip-path="url(#9c0cg)"><g filter="url(#9c0cl)"><use fill="none" stroke-opacity=".05" stroke-width="0" mask="url(&quot;#9c0cm&quot;)" xlink:href="#9c0cc"/><use fill="#236092" fill-opacity=".05" xlink:href="#9c0cc"/></g><use fill="#4b8bc0" fill-opacity=".39" xlink:href="#9c0cc"/></g></g><g><g><g filter="url(#9c0cn)"><use fill="none" stroke-opacity=".05" stroke-width="0" mask="url(&quot;#9c0co&quot;)" xlink:href="#9c0cd"/><use fill="#236092" fill-opacity=".05" xlink:href="#9c0cd"/></g><use fill="#4b8bc0" xlink:href="#9c0cd"/></g><g><g><use fill="#fff" xlink:href="#9c0cp"/></g><g><use fill="#fff" xlink:href="#9c0cq"/></g></g></g><g><g><g><use fill="#fff" xlink:href="#9c0cr"/></g><g><use fill="#fff" xlink:href="#9c0cs"/></g><g><use fill="#fff" xlink:href="#9c0ct"/></g><g><use fill="#fff" xlink:href="#9c0cu"/></g><g><use fill="#fff" xlink:href="#9c0cv"/></g></g><g><g><use fill="#fff" xlink:href="#9c0cw"/></g><g><use fill="#fff" xlink:href="#9c0cx"/></g></g></g></g></g></svg>