<svg xmlns="http://www.w3.org/2000/svg" xmlns:xlink="http://www.w3.org/1999/xlink" width="54" height="14" viewBox="0 0 54 14"><defs><path id="4wtsa" d="M1205.931 3830.438c5.242-4.567 9.383-8.177 20.616-1.738 5.396 3.093 9.75 4.26 13.373 4.26 6.345 0 10.456-3.58 14.011-6.68 1.268-1.105 1.431-3.065.365-4.38-1.067-1.314-2.96-1.483-4.227-.377-5.241 4.568-9.381 8.177-20.618 1.736-14.844-8.506-21.796-2.447-27.382 2.421-1.268 1.105-1.431 3.065-.365 4.38 1.067 1.313 2.959 1.483 4.227.378z"/></defs><g><g transform="translate(-1201 -3819)"><use fill="#ebeff2" xlink:href="#4wtsa"/></g></g></svg>