<svg aria-hidden="true" style="position: absolute; width: 0; height: 0; overflow: hidden;" version="1.1" xmlns="http://www.w3.org/2000/svg" xmlns:xlink="http://www.w3.org/1999/xlink">
<defs>
<symbol id="icon-search" viewBox="0 0 32 32">
<title>search</title>
<path d="M25.023 13.324c0 6.458-5.255 11.718-11.709 11.718s-11.709-5.258-11.709-11.718c0-6.458 5.255-11.718 11.709-11.718s11.709 5.251 11.709 11.718zM0 13.316c0 7.345 5.975 13.316 13.313 13.316 3.38 0 6.473-1.271 8.826-3.356l8.484 8.487c0.145 0.146 0.345 0.236 0.566 0.236 0.001 0 0.003 0 0.004 0h-0c0.001 0 0.002 0 0.004 0 0.221 0 0.422-0.090 0.566-0.236l0-0c0.146-0.145 0.236-0.346 0.236-0.567s-0.090-0.422-0.236-0.567l-8.492-8.486c2.082-2.333 3.354-5.427 3.354-8.818 0-0.003 0-0.007 0-0.010v0.001c0-7.345-5.975-13.316-13.313-13.316s-13.313 5.969-13.313 13.316z"></path>
</symbol>
</defs>
</svg>
