<?xml version="1.0" encoding="UTF-8"?>
<svg width="22px" height="22px" viewBox="0 0 22 22" version="1.1" xmlns="http://www.w3.org/2000/svg" xmlns:xlink="http://www.w3.org/1999/xlink">
    <!-- Generator: Sketch 51.3 (57544) - http://www.bohemiancoding.com/sketch -->
    <title>search</title>
    <desc>Created with Sketch.</desc>
    <defs></defs>
    <g id="Page-1" stroke="none" stroke-width="1" fill="none" fill-rule="evenodd">
        <g id="qha_design_home4" transform="translate(-1483.000000, -125.000000)" fill="#FFFFFF" fill-rule="nonzero">
            <g id="header_3" transform="translate(-54.000000, 67.000000)">
                <g id="header">
                    <g id="search" transform="translate(1527.000000, 48.000000)">
                        <g transform="translate(10.000000, 10.000000)" id="Shape">
                            <path d="M0,9.15502765 C0,14.2056113 4.10810811,18.3100553 9.15315315,18.3100553 C11.4774775,18.3100553 13.6036036,17.4360025 15.2207207,16.0032767 L21.0540541,21.8378046 C21.1621622,21.9459349 21.3018018,22 21.4459459,22 C21.5900901,22 21.7297297,21.9459349 21.8378378,21.8378046 C22.0540541,21.6215441 22.0540541,21.2746263 21.8378378,21.0583658 L16,15.2238378 C17.4324324,13.6063895 18.3063063,11.4843334 18.3063063,9.15502765 C18.3063063,4.10444399 14.1981982,0 9.15315315,0 C4.10810811,0 0,4.10444399 0,9.15502765 Z M17.2027027,9.15502765 C17.2027027,13.5928732 13.5900901,17.2062257 9.15315315,17.2062257 C4.71621622,17.2062257 1.1036036,13.5928732 1.1036036,9.15502765 C1.1036036,4.71718206 4.71621622,1.10382961 9.15315315,1.10382961 C13.5900901,1.10382961 17.2027027,4.71267663 17.2027027,9.15502765 Z"></path>
                        </g>
                    </g>
                </g>
            </g>
        </g>
    </g>
</svg>