<svg xmlns="http://www.w3.org/2000/svg" xmlns:xlink="http://www.w3.org/1999/xlink" width="43" height="43" viewBox="0 0 43 43"><defs><path id="y827a" d="M1473 136.5a21.5 21.5 0 1 1 43 0 21.5 21.5 0 0 1-43 0z"/><path id="y827b" d="M1500.2 134.16a8.06 8.06 0 0 1-8.05 8.06 8.06 8.06 0 0 1 0-16.12 8.06 8.06 0 0 1 8.05 8.06zm-17.2 0a9.16 9.16 0 0 0 15.22 6.84l5.83 5.84c.11.1.25.16.4.16a.55.55 0 0 0 .4-.94l-5.85-5.84a9.16 9.16 0 1 0-16-6.07z"/></defs><g><g transform="translate(-1473 -115)"><g><use fill="#aab9c8" xlink:href="#y827a"/></g><g><g><use fill="#fff" xlink:href="#y827b"/></g></g></g></g></svg>