<?xml version="1.0" encoding="UTF-8"?>
<svg width="10px" height="10px" viewBox="0 0 10 10" version="1.1" xmlns="http://www.w3.org/2000/svg" xmlns:xlink="http://www.w3.org/1999/xlink">
    <!-- Generator: Sketch 51.3 (57544) - http://www.bohemiancoding.com/sketch -->
    <title>Shape</title>
    <desc>Created with Sketch.</desc>
    <defs></defs>
    <g id="Page-1" stroke="none" stroke-width="1" fill="none" fill-rule="evenodd">
        <g id="qha_design_home4" transform="translate(-1494.000000, -26.000000)" fill="#E6E6E6" fill-rule="nonzero">
            <g id="coockes" transform="translate(-3.000000, -42.000000)">
                <g id="close" transform="translate(1487.000000, 58.000000)">
                    <path d="M19.5306122,10.4571429 C19.2367347,10.1632653 18.7653061,10.1632653 18.4714286,10.4571429 L14.9938776,13.9346939 L11.5163265,10.4571429 C11.222449,10.1632653 10.7510204,10.1632653 10.4571429,10.4571429 C10.1632653,10.7510204 10.1632653,11.222449 10.4571429,11.5163265 L13.9346939,14.9938776 L10.4571429,18.4714286 C10.1632653,18.7653061 10.1632653,19.2367347 10.4571429,19.5306122 C10.6040816,19.677551 10.7938776,19.7510204 10.9897959,19.7510204 C11.1857143,19.7510204 11.3755102,19.677551 11.522449,19.5306122 L15,16.0530612 L18.477551,19.5306122 C18.6244898,19.677551 18.8142857,19.7510204 19.0102041,19.7510204 C19.2061224,19.7510204 19.3959184,19.677551 19.5428571,19.5306122 C19.8367347,19.2367347 19.8367347,18.7653061 19.5428571,18.4714286 L16.0530612,14.9938776 L19.5306122,11.5163265 C19.8244898,11.222449 19.8244898,10.7510204 19.5306122,10.4571429 Z" id="Shape"></path>
                </g>
            </g>
        </g>
    </g>
</svg>