<?xml version="1.0" encoding="UTF-8"?>
<svg width="20px" height="22px" viewBox="0 0 20 22" version="1.1" xmlns="http://www.w3.org/2000/svg" xmlns:xlink="http://www.w3.org/1999/xlink">
    <!-- Generator: Sketch 51.3 (57544) - http://www.bohemiancoding.com/sketch -->
    <title>speaker</title>
    <desc>Created with Sketch.</desc>
    <defs></defs>
    <g id="Page-1" stroke="none" stroke-width="1" fill="none" fill-rule="evenodd">
        <g id="qha_design_home4" transform="translate(-1364.000000, -211.000000)" fill="#FFFFFF" fill-rule="nonzero">
            <g id="header_3" transform="translate(-54.000000, 67.000000)">
                <g id="header">
                    <g id="radio" transform="translate(1401.000000, 136.000000)">
                        <g id="speaker_btn">
                            <g transform="translate(9.600000, 2.432653)">
                                <g id="speaker" transform="translate(7.200000, 6.400000)">
                                    <path d="M12.4454545,0 C12.195,0 11.9468182,0.0691826087 11.7277273,0.200765217 C11.7068182,0.212973913 11.6868182,0.227443478 11.6686364,0.242817391 L5.50954545,5.42608696 L0.675909091,5.42608696 C0.424545455,5.42608696 0.221363636,5.6282087 0.221363636,5.87826087 L0.221363636,14.4695652 C0.221363636,14.7196174 0.424545455,14.9217391 0.675909091,14.9217391 L5.49863636,14.9217391 L11.6545455,20.5449739 C11.6772727,20.5657739 11.7018182,20.5838609 11.7277273,20.5992348 C11.9472727,20.7308174 12.1954545,20.8 12.4454545,20.8 C13.2240909,20.8 13.8572727,20.1597217 13.8572727,19.3729391 L13.8572727,1.42706087 C13.8577273,0.640278261 13.2240909,0 12.4454545,0 Z M6.13045455,14.0173913 C6.13045455,14.2674435 5.92727273,14.4695652 5.67590909,14.4695652 C5.42454545,14.4695652 5.22136364,14.2674435 5.22136364,14.0173913 L5.22136364,12.2086957 C5.22136364,11.9586435 5.42454545,11.7565217 5.67590909,11.7565217 C5.92727273,11.7565217 6.13045455,11.9586435 6.13045455,12.2086957 L6.13045455,14.0173913 Z M6.13045455,8.13913043 C6.13045455,8.38918261 5.92727273,8.59130435 5.67590909,8.59130435 C5.42454545,8.59130435 5.22136364,8.38918261 5.22136364,8.13913043 L5.22136364,6.33043478 C5.22136364,6.08038261 5.42454545,5.87826087 5.67590909,5.87826087 C5.92727273,5.87826087 6.13045455,6.08038261 6.13045455,6.33043478 L6.13045455,8.13913043 Z" id="Shape"></path>
                                    <path d="M19.7786364,10.173913 C19.7786364,7.47353043 17.9563636,5.06344348 15.3472727,4.31283478 C15.105,4.24455652 14.8545455,4.38156522 14.7845455,4.62212174 C14.715,4.86177391 14.8536364,5.11273043 15.0954545,5.18191304 C17.3177273,5.82083478 18.87,7.87370435 18.87,10.173913 C18.87,12.4741217 17.3177273,14.5269913 15.0954545,15.165913 C14.8540909,15.2350957 14.715,15.4860522 14.7845455,15.7257043 C14.8422727,15.9237565 15.0236364,16.0526261 15.2213636,16.0526261 C15.2631818,16.0526261 15.3054545,16.0467478 15.3472727,16.0349913 C17.9563636,15.2843826 19.7786364,12.8742957 19.7786364,10.173913 Z" id="Shape"></path>
                                </g>
                            </g>
                        </g>
                    </g>
                </g>
            </g>
        </g>
    </g>
</svg>