<svg aria-hidden="true" style="position: absolute; width: 0; height: 0; overflow: hidden;" version="1.1" xmlns="http://www.w3.org/2000/svg" xmlns:xlink="http://www.w3.org/1999/xlink">
<defs>
<symbol id="icon-speaker" viewBox="0 0 29 32">
<title>speaker</title>
<path fill="#fff" style="fill: var(--color1, #fff)" d="M17.812 1.211c-0.364 0-0.725 0.101-1.044 0.292-0.030 0.018-0.059 0.039-0.086 0.061l-8.959 7.539h-7.031c-0.366 0-0.661 0.294-0.661 0.658v12.496c0 0.364 0.296 0.658 0.661 0.658h7.015l8.954 8.179c0.033 0.030 0.069 0.057 0.106 0.079 0.319 0.191 0.68 0.292 1.044 0.292 1.133 0 2.054-0.931 2.054-2.076v-26.103c0.001-1.144-0.921-2.076-2.054-2.076zM8.626 21.6c0 0.364-0.296 0.658-0.661 0.658s-0.661-0.294-0.661-0.658v-2.631c0-0.364 0.296-0.658 0.661-0.658s0.661 0.294 0.661 0.658v2.631zM8.626 13.050c0 0.364-0.296 0.658-0.661 0.658s-0.661-0.294-0.661-0.658v-2.631c0-0.364 0.296-0.658 0.661-0.658s0.661 0.294 0.661 0.658v2.631z"></path>
<path fill="#fff" style="fill: var(--color1, #fff)" d="M28.478 16.010c0-3.928-2.651-7.433-6.446-8.525-0.352-0.099-0.717 0.1-0.819 0.45-0.101 0.349 0.101 0.714 0.452 0.814 3.232 0.929 5.49 3.915 5.49 7.261s-2.258 6.332-5.49 7.261c-0.351 0.101-0.553 0.466-0.452 0.814 0.084 0.288 0.348 0.476 0.635 0.476 0.061 0 0.122-0.009 0.183-0.026 3.795-1.092 6.446-4.597 6.446-8.525z"></path>
</symbol>
<symbol id="icon-radio_not_active" viewBox="0 0 134 32">
<title>radio_not_active</title>
<path fill="#000" style="fill: var(--color2, #000)" d="M5.12 0.8h123.504c2.828 0 5.12 2.292 5.12 5.12v20.036c0 2.828-2.292 5.12-5.12 5.12h-123.504c-2.828 0-5.12-2.292-5.12-5.12v-20.036c0-2.828 2.292-5.12 5.12-5.12z"></path>
<path fill="#000" style="fill: var(--color2, #000)" d="M40.91 16.434c0 13.569-11.624 24.568-25.962 24.568s-25.962-11-25.962-24.568c0-13.569 11.624-24.568 25.962-24.568s25.962 11 25.962 24.568z"></path>
<path fill="#aab9c8" style="fill: var(--color3, #aab9c8)" opacity="0.16292073780283944" d="M40.91 16.434c0 13.569-11.624 24.568-25.962 24.568s-25.962-11-25.962-24.568c0-13.569 11.624-24.568 25.962-24.568s25.962 11 25.962 24.568z"></path>
<path fill="#000" style="fill: var(--color2, #000)" d="M56.645 16.434c0 17.68-15.146 32.013-33.829 32.013s-33.829-14.333-33.829-32.013c0-17.68 15.146-32.013 33.829-32.013s33.829 14.333 33.829 32.013z"></path>
<path fill="#aab9c8" style="fill: var(--color3, #aab9c8)" opacity="0.042586427350006596" d="M56.645 16.434c0 17.68-15.146 32.013-33.829 32.013s-33.829-14.333-33.829-32.013c0-17.68 15.146-32.013 33.829-32.013s33.829 14.333 33.829 32.013z"></path>
<path fill="#000" style="fill: var(--color2, #000)" d="M74.477 15.938c0 24.259-20.782 43.925-46.417 43.925s-46.417-19.666-46.417-43.925c0-24.259 20.782-43.925 46.417-43.925s46.417 19.666 46.417 43.925z"></path>
<path fill="#aab9c8" style="fill: var(--color3, #aab9c8)" opacity="0.036018082504212984" d="M74.477 15.938c0 24.259-20.782 43.925-46.417 43.925s-46.417-19.666-46.417-43.925c0-24.259 20.782-43.925 46.417-43.925s46.417 19.666 46.417 43.925z"></path>
<path fill="#000" style="fill: var(--color2, #000)" d="M34.56 16.186c0 7.423-6.017 13.44-13.44 13.44s-13.44-6.017-13.44-13.44c0-7.423 6.017-13.44 13.44-13.44s13.44 6.017 13.44 13.44z"></path>
<path fill="#9ab" style="fill: var(--color4, #9ab)" d="M34.56 16.186c0 7.423-6.017 13.44-13.44 13.44s-13.44-6.017-13.44-13.44c0-7.423 6.017-13.44 13.44-13.44s13.44 6.017 13.44 13.44z"></path>
<path fill="#fff" style="fill: var(--color1, #fff)" d="M23.396 7.866c-0.2 0-0.399 0.055-0.574 0.161-0.017 0.010-0.033 0.021-0.047 0.034l-4.927 4.147h-3.867c-0.201 0-0.364 0.162-0.364 0.362v6.873c0 0.2 0.163 0.362 0.364 0.362h3.858l4.925 4.499c0.018 0.017 0.038 0.031 0.059 0.043 0.176 0.105 0.374 0.161 0.574 0.161 0.623 0 1.129-0.512 1.129-1.142v-14.357c0-0.629-0.507-1.142-1.129-1.142zM18.344 19.080c0 0.2-0.163 0.362-0.364 0.362s-0.364-0.162-0.364-0.362v-1.447c0-0.2 0.163-0.362 0.364-0.362s0.364 0.162 0.364 0.362v1.447zM18.344 14.377c0 0.2-0.163 0.362-0.364 0.362s-0.364-0.162-0.364-0.362v-1.447c0-0.2 0.163-0.362 0.364-0.362s0.364 0.162 0.364 0.362v1.447z"></path>
<path fill="#fff" style="fill: var(--color1, #fff)" d="M29.263 16.005c0-2.16-1.458-4.088-3.545-4.689-0.194-0.055-0.394 0.055-0.45 0.247s0.055 0.393 0.249 0.448c1.778 0.511 3.020 2.153 3.020 3.994s-1.242 3.482-3.020 3.994c-0.193 0.055-0.304 0.256-0.249 0.448 0.046 0.158 0.191 0.262 0.349 0.262 0.033 0 0.067-0.005 0.101-0.014 2.087-0.601 3.545-2.529 3.545-4.689z"></path>
<path fill="#fff" style="fill: var(--color1, #fff)" d="M89.136 20.685v-6.202h1.222v0.661c0.246-0.229 0.491-0.409 0.731-0.54s0.534-0.197 0.886-0.197v1.321c-0.117-0.049-0.246-0.071-0.368-0.071s-0.267 0.022-0.411 0.066c-0.149 0.044-0.283 0.12-0.4 0.224-0.128 0.104-0.23 0.246-0.31 0.415s-0.117 0.382-0.117 0.633v3.68h-1.233v0.011z"></path>
<path fill="#fff" style="fill: var(--color1, #fff)" d="M95.087 20.685v-0.633h-0.021c-0.16 0.229-0.32 0.404-0.486 0.524s-0.395 0.186-0.689 0.186c-0.144 0-0.288-0.022-0.438-0.066s-0.288-0.131-0.427-0.251c-0.133-0.115-0.246-0.278-0.331-0.497s-0.128-0.497-0.128-0.835c0-0.349 0.027-0.661 0.085-0.923 0.053-0.268 0.16-0.486 0.31-0.666 0.144-0.169 0.336-0.3 0.587-0.388 0.246-0.087 0.56-0.131 0.945-0.131 0.037 0 0.085 0 0.133 0s0.091 0.005 0.133 0.011c0.037 0.011 0.085 0.011 0.144 0.011 0.053 0 0.117 0.005 0.181 0.011v-0.65c0-0.213-0.043-0.388-0.133-0.524-0.085-0.136-0.246-0.207-0.48-0.207-0.16 0-0.304 0.055-0.438 0.158s-0.219 0.262-0.256 0.464h-1.185c0.032-0.557 0.213-1.005 0.55-1.343 0.16-0.164 0.352-0.289 0.576-0.388 0.224-0.093 0.475-0.142 0.753-0.142 0.256 0 0.496 0.044 0.715 0.12 0.224 0.082 0.416 0.202 0.587 0.366 0.16 0.164 0.288 0.366 0.384 0.611s0.144 0.53 0.144 0.857v4.319h-1.217v0.005zM95.087 18.021c-0.133-0.022-0.246-0.038-0.336-0.038-0.262 0-0.491 0.066-0.678 0.191s-0.283 0.355-0.283 0.693c0 0.235 0.053 0.426 0.165 0.573s0.267 0.218 0.464 0.218c0.208 0 0.368-0.071 0.486-0.207s0.171-0.333 0.171-0.59v-0.841h0.011z"></path>
<path fill="#fff" style="fill: var(--color1, #fff)" d="M100.030 20.685v-0.562c-0.080 0.087-0.155 0.175-0.23 0.251-0.069 0.076-0.149 0.147-0.24 0.202-0.085 0.055-0.187 0.104-0.299 0.137s-0.246 0.049-0.395 0.049c-0.512 0-0.865-0.197-1.062-0.59-0.069-0.137-0.123-0.311-0.155-0.513s-0.048-0.475-0.048-0.819v-2.359c0-0.448 0.011-0.781 0.037-0.988 0.048-0.409 0.235-0.715 0.56-0.917 0.149-0.104 0.379-0.158 0.683-0.158 0.24 0 0.454 0.055 0.641 0.164s0.347 0.268 0.486 0.47h0.021v-3.068h1.222v8.708h-1.222v-0.005zM98.818 18.665c0 0.251 0.048 0.459 0.144 0.611s0.246 0.235 0.454 0.235c0.181 0 0.331-0.071 0.443-0.213s0.165-0.328 0.165-0.557v-2.408c0-0.197-0.059-0.355-0.171-0.486-0.117-0.126-0.262-0.191-0.438-0.191-0.23 0-0.39 0.071-0.475 0.218s-0.128 0.317-0.128 0.513v2.277h0.005z"></path>
<path fill="#fff" style="fill: var(--color1, #fff)" d="M102.646 13.222v-1.25h1.222v1.25h-1.222zM102.646 20.685v-6.202h1.222v6.202h-1.222z"></path>
<path fill="#fff" style="fill: var(--color1, #fff)" d="M105.16 16.563c0-0.251 0.016-0.486 0.048-0.699s0.091-0.399 0.181-0.562c0.144-0.268 0.347-0.486 0.614-0.65s0.593-0.246 0.977-0.246c0.384 0 0.71 0.082 0.977 0.246s0.475 0.377 0.614 0.65c0.085 0.164 0.149 0.349 0.181 0.562s0.048 0.442 0.048 0.699v2.042c0 0.251-0.016 0.486-0.048 0.699s-0.091 0.399-0.181 0.562c-0.144 0.268-0.347 0.486-0.614 0.65s-0.593 0.246-0.977 0.246c-0.384 0-0.71-0.082-0.977-0.246s-0.47-0.377-0.614-0.65c-0.085-0.164-0.149-0.349-0.181-0.562s-0.048-0.442-0.048-0.699v-2.042zM106.377 18.801c0 0.235 0.053 0.415 0.16 0.53 0.107 0.12 0.251 0.175 0.438 0.175 0.181 0 0.331-0.060 0.438-0.175 0.107-0.12 0.16-0.295 0.16-0.53v-2.435c0-0.235-0.053-0.415-0.16-0.53-0.107-0.12-0.251-0.175-0.438-0.175-0.181 0-0.331 0.060-0.438 0.175-0.107 0.12-0.16 0.295-0.16 0.53v2.435z"></path>
<path fill="#fff" style="fill: var(--color1, #fff)" d="M72.626 10.47h-0.71c0 0-0.005 0-0.011 0h-0.998v3.986h-9.085v-2.637c0-0.748-0.593-1.349-1.318-1.349h-14.097c-0.512 0-0.902 0.164-1.174 0.48-0.256 0.295-0.39 0.628-0.39 0.988v7.174c0 0.524 0.149 0.923 0.448 1.201 0.304 0.268 0.587 0.399 0.843 0.399h6.235l1.697 1.201h3.763l-1.548-1.196h5.541v-4.111h9.090v4.111h2.946v-8.654c0-0.093-0.011-0.186-0.021-0.273-0.021-0.688-0.544-1.261-1.212-1.321zM58.7 18.594l-2.626-0.044 0.214 2.162-2.738-2.118h-5.583v-5.236c0-0.409 0.326-0.748 0.731-0.748h10.003v5.984z"></path>
<path fill="#fff" style="fill: var(--color1, #fff)" d="M85.89 11.824c0-0.748-0.593-1.354-1.324-1.354-0.064 0-0.128 0.005-0.192 0.016v-0.016h-0.427c0 0-0.005 0-0.005 0h-10.152c0 0-0.886 0-0.849 0 0.117 0 0.315 0.060 0.32 0.060 0.342 0.115 0.619 0.377 0.753 0.715 0.128 0.3 0.155 0.633 0.155 0.819v0.524h0.043c0 0 0 0-0.005 0.005h7.996c0.411 0 0.742 0.338 0.742 0.759v1.299h-8.77v1.949h8.738v4.111h2.978v-8.643c0-0.038-0.005-0.076-0.005-0.12s0.005-0.082 0.005-0.126z"></path>
</symbol>
<symbol id="icon-youtube-play-button" viewBox="0 0 47 32">
<title>youtube-play-button</title>
<path fill="#aab9c8" style="fill: var(--color3, #aab9c8)" d="M46.933 6.836c0-3.776-3.14-6.836-7.014-6.836h-32.905c-3.874 0-7.014 3.060-7.014 6.836v18.328c0 3.776 3.14 6.836 7.014 6.836h32.905c3.874 0 7.014-3.060 7.014-6.836v-18.328zM18.773 23.733v-17.216l13.403 8.608-13.403 8.608z"></path>
</symbol>
<symbol id="icon-qha-radio" viewBox="0 0 171 32">
<title>qha-radio</title>
<path fill="#fff" style="fill: var(--color1, #fff)" d="M118.228 27.426v-16.539h3.26v1.762c0.655-0.611 1.31-1.092 1.95-1.441s1.423-0.524 2.363-0.524v3.523c-0.313-0.131-0.655-0.189-0.982-0.189s-0.712 0.058-1.096 0.175c-0.399 0.116-0.754 0.32-1.068 0.597-0.342 0.277-0.612 0.655-0.826 1.107s-0.313 1.019-0.313 1.689v9.813h-3.288v0.029z"></path>
<path fill="#fff" style="fill: var(--color1, #fff)" d="M134.099 27.426v-1.689h-0.057c-0.427 0.611-0.854 1.077-1.295 1.398s-1.053 0.495-1.836 0.495c-0.384 0-0.769-0.058-1.167-0.175s-0.769-0.349-1.139-0.67c-0.356-0.306-0.655-0.743-0.882-1.325s-0.342-1.325-0.342-2.228c0-0.932 0.071-1.762 0.228-2.46 0.142-0.713 0.427-1.296 0.826-1.776 0.384-0.451 0.897-0.801 1.566-1.034 0.655-0.233 1.495-0.349 2.519-0.349 0.1 0 0.228 0 0.356 0s0.242 0.015 0.356 0.029c0.1 0.029 0.228 0.029 0.384 0.029 0.142 0 0.313 0.015 0.484 0.029v-1.733c0-0.568-0.114-1.034-0.356-1.398-0.228-0.364-0.655-0.553-1.281-0.553-0.427 0-0.811 0.146-1.167 0.422s-0.584 0.699-0.683 1.238h-3.16c0.085-1.485 0.569-2.679 1.466-3.582 0.427-0.437 0.939-0.772 1.537-1.034 0.598-0.248 1.267-0.379 2.007-0.379 0.683 0 1.324 0.116 1.907 0.32 0.598 0.218 1.11 0.539 1.566 0.975 0.427 0.437 0.769 0.975 1.025 1.631s0.384 1.412 0.384 2.286v11.516h-3.245v0.015zM134.099 20.322c-0.356-0.058-0.655-0.102-0.897-0.102-0.697 0-1.31 0.175-1.808 0.51s-0.754 0.946-0.754 1.849c0 0.626 0.142 1.136 0.441 1.529s0.712 0.582 1.238 0.582c0.555 0 0.982-0.189 1.295-0.553s0.456-0.888 0.456-1.572v-2.242h0.028z"></path>
<path fill="#fff" style="fill: var(--color1, #fff)" d="M147.28 27.426v-1.5c-0.214 0.233-0.413 0.466-0.612 0.67-0.185 0.204-0.399 0.393-0.641 0.539-0.228 0.146-0.498 0.277-0.797 0.364s-0.655 0.131-1.053 0.131c-1.366 0-2.306-0.524-2.833-1.572-0.185-0.364-0.327-0.83-0.413-1.369s-0.128-1.267-0.128-2.184v-6.29c0-1.194 0.028-2.082 0.1-2.635 0.128-1.092 0.626-1.907 1.495-2.446 0.399-0.277 1.011-0.422 1.822-0.422 0.641 0 1.21 0.146 1.708 0.437s0.925 0.713 1.295 1.252h0.057v-8.182h3.26v23.222h-3.26v-0.015zM144.049 22.040c0 0.67 0.128 1.223 0.384 1.631s0.655 0.626 1.21 0.626c0.484 0 0.882-0.189 1.181-0.568s0.441-0.874 0.441-1.485v-6.421c0-0.524-0.157-0.946-0.456-1.296-0.313-0.335-0.697-0.51-1.167-0.51-0.612 0-1.039 0.189-1.267 0.582s-0.342 0.844-0.342 1.369v6.071h0.014z"></path>
<path fill="#fff" style="fill: var(--color1, #fff)" d="M154.255 7.524v-3.334h3.26v3.334h-3.26zM154.255 27.426v-16.539h3.26v16.539h-3.26z"></path>
<path fill="#fff" style="fill: var(--color1, #fff)" d="M160.959 16.434c0-0.67 0.043-1.296 0.128-1.864s0.242-1.063 0.484-1.5c0.384-0.713 0.925-1.296 1.637-1.733s1.58-0.655 2.605-0.655c1.025 0 1.893 0.218 2.605 0.655s1.267 1.005 1.637 1.733c0.228 0.437 0.399 0.932 0.484 1.5s0.128 1.179 0.128 1.864v5.445c0 0.67-0.043 1.296-0.128 1.864s-0.242 1.063-0.484 1.5c-0.384 0.713-0.925 1.296-1.637 1.733s-1.58 0.655-2.605 0.655c-1.025 0-1.893-0.218-2.605-0.655s-1.253-1.005-1.637-1.733c-0.228-0.437-0.399-0.932-0.484-1.5s-0.128-1.179-0.128-1.864v-5.445zM164.204 22.404c0 0.626 0.142 1.107 0.427 1.412 0.285 0.32 0.669 0.466 1.167 0.466 0.484 0 0.882-0.16 1.167-0.466 0.285-0.32 0.427-0.786 0.427-1.412v-6.493c0-0.626-0.142-1.107-0.427-1.412-0.285-0.32-0.669-0.466-1.167-0.466-0.484 0-0.882 0.16-1.167 0.466-0.285 0.32-0.427 0.786-0.427 1.412v6.493z"></path>
<path fill="#fff" style="fill: var(--color1, #fff)" d="M74.202 0.186h-1.893c0 0-0.014 0-0.028 0h-2.662v10.628h-24.226v-7.032c0-1.995-1.58-3.596-3.516-3.596h-37.592c-1.366 0-2.406 0.437-3.131 1.281-0.683 0.786-1.039 1.674-1.039 2.635v19.131c0 1.398 0.399 2.46 1.196 3.203 0.811 0.713 1.566 1.063 2.249 1.063h16.625l4.526 3.203h10.035l-4.128-3.188h14.775v-10.963h24.241v10.963h7.857v-23.076c0-0.247-0.028-0.495-0.057-0.728-0.057-1.834-1.452-3.363-3.231-3.523zM37.066 21.85l-7.003-0.116 0.569 5.765-7.302-5.649h-14.889v-13.962c0-1.092 0.868-1.995 1.95-1.995h26.675v15.957z"></path>
<path fill="#fff" style="fill: var(--color1, #fff)" d="M109.574 3.797c0-1.995-1.58-3.611-3.53-3.611-0.171 0-0.342 0.015-0.512 0.044v-0.044h-1.139c0 0-0.014 0-0.014 0h-27.073c0 0-2.363 0-2.263 0 0.313 0 0.84 0.16 0.854 0.16 0.911 0.306 1.651 1.005 2.007 1.907 0.342 0.801 0.413 1.689 0.413 2.184v1.398h0.114c0 0 0 0-0.014 0.015h21.323c1.096 0 1.979 0.903 1.979 2.024v3.465h-23.387v5.198h23.301v10.963h7.943v-23.047c0-0.102-0.014-0.204-0.014-0.32s0.014-0.218 0.014-0.335z"></path>
</symbol>
<symbol id="icon-qha_logo-white" viewBox="0 0 191 32">
<title>qha_logo-white</title>
<path fill="#fff" style="fill: var(--color1, #fff)" d="M38.975 22.562l-7.388-0.123 0.595 5.949-7.7-5.826h-15.7v-14.397c0-1.134 0.919-2.052 2.053-2.052h28.141v16.45zM78.16 0.223h-2.005c-0.007 0-0.015-0.001-0.023-0.001h-2.802v10.966h-25.574v-7.253c0-2.051-1.663-3.714-3.714-3.714h-39.652c-1.442 0-2.542 0.443-3.299 1.328-0.728 0.814-1.092 1.721-1.092 2.72v19.726c0 1.443 0.421 2.542 1.264 3.298 0.857 0.728 1.649 1.092 2.378 1.092h17.542l4.776 3.298h10.581l-4.353-3.293 15.569-0.005v-11.309h25.574v11.309h8.285v-23.774c0-0.261-0.026-0.508-0.066-0.747-0.039-1.909-1.514-3.48-3.39-3.643z"></path>
<path fill="#fff" style="fill: var(--color1, #fff)" d="M115.469 3.944c0-2.055-1.666-3.721-3.721-3.721-0.186 0-0.367 0.018-0.545 0.044v-0.044h-1.195c-0.008 0-0.015-0.001-0.022-0.001h-28.551c0 0-2.495 0.001-2.381 0.001 0.325 0 0.891 0.162 0.899 0.165 0.964 0.31 1.741 1.035 2.121 1.965 0.361 0.825 0.436 1.739 0.436 2.26v1.444h0.118c-0.003 0.003-0.005 0.007-0.008 0.010h22.495c1.151 0 2.084 0.933 2.084 2.084v3.572h-24.689v5.356h24.585v11.309h8.375v-23.774c0-0.112-0.010-0.217-0.018-0.324 0.010-0.114 0.018-0.228 0.018-0.344z"></path>
<path fill="#aab9c8" style="fill: var(--color3, #aab9c8)" d="M124.6 28.314v-17.056h3.432v1.649h0.067c0.359-0.539 0.791-0.981 1.296-1.329s1.149-0.522 1.934-0.522c0.74 0 1.357 0.179 1.851 0.538s0.896 0.752 1.211 1.178c0.426-0.471 0.897-0.875 1.413-1.211s1.233-0.505 2.153-0.505c0.426 0 0.863 0.073 1.312 0.219s0.852 0.387 1.211 0.723c0.358 0.336 0.65 0.769 0.875 1.295s0.336 1.172 0.336 1.935v13.086h-3.432v-11.808c0-0.627-0.146-1.121-0.437-1.48s-0.706-0.538-1.245-0.538c-0.651 0-1.1 0.202-1.346 0.605s-0.37 0.987-0.37 1.749v11.472h-3.431v-11.808c0-0.627-0.146-1.121-0.438-1.48s-0.706-0.538-1.245-0.538c-0.651 0-1.099 0.202-1.346 0.605s-0.37 0.987-0.37 1.749v11.472h-3.432z"></path>
<path fill="#aab9c8" style="fill: var(--color3, #aab9c8)" d="M148.755 18.39h3.364v-1.951c0-0.65-0.151-1.138-0.454-1.463s-0.712-0.488-1.228-0.488c-0.516 0-0.925 0.163-1.228 0.488s-0.454 0.813-0.454 1.463v1.951zM155.551 21.082h-6.796v2.321c0 0.538 0.152 0.953 0.454 1.245s0.712 0.437 1.228 0.437c0.65 0 1.082-0.19 1.296-0.572s0.341-0.762 0.387-1.144h3.432c0 1.503-0.46 2.714-1.379 3.633-0.449 0.471-0.987 0.841-1.615 1.11s-1.334 0.404-2.119 0.404c-1.076 0-1.991-0.224-2.742-0.673s-1.328-1.043-1.732-1.783c-0.247-0.448-0.415-0.964-0.505-1.547s-0.135-1.222-0.135-1.918v-5.618c0-0.695 0.045-1.334 0.135-1.917s0.257-1.099 0.505-1.548c0.404-0.74 0.981-1.334 1.732-1.783s1.666-0.673 2.742-0.673c0.785 0 1.497 0.135 2.136 0.404s1.183 0.639 1.632 1.11c0.896 1.009 1.346 2.277 1.346 3.802v4.71z"></path>
<path fill="#aab9c8" style="fill: var(--color3, #aab9c8)" d="M162.616 22.764c0 0.695 0.135 1.256 0.404 1.682s0.695 0.639 1.278 0.639c0.516 0 0.931-0.196 1.245-0.589s0.471-0.903 0.471-1.531v-6.627c0-0.538-0.163-0.981-0.488-1.329s-0.735-0.522-1.228-0.522c-0.651 0-1.093 0.202-1.329 0.605s-0.353 0.875-0.353 1.413v6.257zM166.014 28.314v-1.547c-0.224 0.247-0.438 0.477-0.639 0.689s-0.426 0.399-0.673 0.555c-0.247 0.157-0.527 0.281-0.841 0.37s-0.684 0.135-1.11 0.135c-1.436 0-2.434-0.538-2.994-1.615-0.202-0.381-0.348-0.852-0.437-1.413s-0.135-1.312-0.135-2.254v-6.493c0-1.233 0.034-2.141 0.101-2.725 0.134-1.121 0.661-1.962 1.581-2.523 0.426-0.291 1.065-0.437 1.917-0.437 0.673 0 1.273 0.151 1.8 0.454s0.981 0.735 1.363 1.295h0.067v-8.444h3.431v23.953h-3.431z"></path>
<path fill="#aab9c8" style="fill: var(--color3, #aab9c8)" d="M173.381 28.314h3.431v-17.056h-3.431v17.056zM173.381 7.793h3.431v-3.431h-3.431v3.431z"></path>
<path fill="#aab9c8" style="fill: var(--color3, #aab9c8)" d="M187.241 20.981c-0.381-0.067-0.695-0.101-0.942-0.101-0.74 0-1.374 0.174-1.901 0.522s-0.791 0.981-0.791 1.901c0 0.651 0.156 1.177 0.471 1.581s0.751 0.605 1.312 0.605c0.583 0 1.037-0.191 1.362-0.572s0.488-0.92 0.488-1.615v-2.321zM187.241 28.314v-1.749h-0.067c-0.449 0.628-0.903 1.11-1.363 1.447s-1.105 0.505-1.934 0.505c-0.404 0-0.813-0.062-1.228-0.185s-0.813-0.353-1.194-0.69c-0.382-0.313-0.69-0.768-0.925-1.362s-0.353-1.362-0.353-2.305c0-0.964 0.078-1.811 0.235-2.54 0.156-0.729 0.448-1.34 0.874-1.833 0.404-0.471 0.953-0.825 1.649-1.060s1.581-0.353 2.658-0.353c0.112 0 0.235 0 0.37 0s0.257 0.012 0.37 0.034c0.112 0.023 0.246 0.034 0.404 0.034s0.325 0.012 0.505 0.034v-1.783c0-0.583-0.123-1.065-0.37-1.446s-0.695-0.572-1.346-0.572c-0.449 0-0.858 0.146-1.228 0.438s-0.611 0.718-0.723 1.278h-3.331c0.089-1.525 0.606-2.759 1.548-3.701 0.448-0.448 0.987-0.802 1.615-1.060s1.334-0.387 2.119-0.387c0.718 0 1.39 0.113 2.019 0.336s1.177 0.561 1.648 1.009c0.449 0.449 0.808 1.009 1.077 1.682s0.403 1.458 0.403 2.355v11.875h-3.431z"></path>
</symbol>
<symbol id="icon-qha_logo" viewBox="0 0 191 32">
<title>qha_logo</title>
<path fill="#295982" style="fill: var(--color5, #295982)" d="M38.975 22.562l-7.388-0.123 0.595 5.949-7.7-5.826h-15.7v-14.397c0-1.134 0.919-2.052 2.053-2.052h28.141v16.45zM78.16 0.223h-2.005c-0.007 0-0.015-0.001-0.023-0.001h-2.802v10.966h-25.574v-7.253c0-2.051-1.663-3.714-3.714-3.714h-39.652c-1.442 0-2.542 0.443-3.299 1.328-0.728 0.814-1.092 1.721-1.092 2.72v19.726c0 1.443 0.421 2.542 1.264 3.298 0.857 0.728 1.649 1.092 2.378 1.092h17.542l4.776 3.298h10.581l-4.353-3.293 15.569-0.005v-11.309h25.574v11.309h8.285v-23.774c0-0.261-0.026-0.508-0.066-0.747-0.039-1.909-1.514-3.48-3.39-3.643z"></path>
<path fill="#295982" style="fill: var(--color5, #295982)" d="M115.469 3.944c0-2.055-1.666-3.721-3.721-3.721-0.186 0-0.367 0.018-0.545 0.044v-0.044h-1.195c-0.008 0-0.015-0.001-0.022-0.001h-28.551c0 0-2.495 0.001-2.381 0.001 0.325 0 0.891 0.162 0.899 0.165 0.964 0.31 1.741 1.035 2.121 1.965 0.361 0.825 0.436 1.739 0.436 2.26v1.444h0.118c-0.003 0.003-0.005 0.007-0.008 0.010h22.495c1.151 0 2.084 0.933 2.084 2.084v3.572h-24.689v5.356h24.585v11.309h8.375v-23.774c0-0.112-0.010-0.217-0.018-0.324 0.010-0.114 0.018-0.228 0.018-0.344z"></path>
<path fill="#aab9c8" style="fill: var(--color3, #aab9c8)" d="M124.6 28.314v-17.056h3.432v1.649h0.067c0.359-0.539 0.791-0.981 1.296-1.329s1.149-0.522 1.934-0.522c0.74 0 1.357 0.179 1.851 0.538s0.896 0.752 1.211 1.178c0.426-0.471 0.897-0.875 1.413-1.211s1.233-0.505 2.153-0.505c0.426 0 0.863 0.073 1.312 0.219s0.852 0.387 1.211 0.723c0.358 0.336 0.65 0.769 0.875 1.295s0.336 1.172 0.336 1.935v13.086h-3.432v-11.808c0-0.627-0.146-1.121-0.437-1.48s-0.706-0.538-1.245-0.538c-0.651 0-1.1 0.202-1.346 0.605s-0.37 0.987-0.37 1.749v11.472h-3.431v-11.808c0-0.627-0.146-1.121-0.438-1.48s-0.706-0.538-1.245-0.538c-0.651 0-1.099 0.202-1.346 0.605s-0.37 0.987-0.37 1.749v11.472h-3.432z"></path>
<path fill="#aab9c8" style="fill: var(--color3, #aab9c8)" d="M148.755 18.39h3.364v-1.951c0-0.65-0.151-1.138-0.454-1.463s-0.712-0.488-1.228-0.488c-0.516 0-0.925 0.163-1.228 0.488s-0.454 0.813-0.454 1.463v1.951zM155.551 21.082h-6.796v2.321c0 0.538 0.152 0.953 0.454 1.245s0.712 0.437 1.228 0.437c0.65 0 1.082-0.19 1.296-0.572s0.341-0.762 0.387-1.144h3.432c0 1.503-0.46 2.714-1.379 3.633-0.449 0.471-0.987 0.841-1.615 1.11s-1.334 0.404-2.119 0.404c-1.076 0-1.991-0.224-2.742-0.673s-1.328-1.043-1.732-1.783c-0.247-0.448-0.415-0.964-0.505-1.547s-0.135-1.222-0.135-1.918v-5.618c0-0.695 0.045-1.334 0.135-1.917s0.257-1.099 0.505-1.548c0.404-0.74 0.981-1.334 1.732-1.783s1.666-0.673 2.742-0.673c0.785 0 1.497 0.135 2.136 0.404s1.183 0.639 1.632 1.11c0.896 1.009 1.346 2.277 1.346 3.802v4.71z"></path>
<path fill="#aab9c8" style="fill: var(--color3, #aab9c8)" d="M162.616 22.764c0 0.695 0.135 1.256 0.404 1.682s0.695 0.639 1.278 0.639c0.516 0 0.931-0.196 1.245-0.589s0.471-0.903 0.471-1.531v-6.627c0-0.538-0.163-0.981-0.488-1.329s-0.735-0.522-1.228-0.522c-0.651 0-1.093 0.202-1.329 0.605s-0.353 0.875-0.353 1.413v6.257zM166.014 28.314v-1.547c-0.224 0.247-0.438 0.477-0.639 0.689s-0.426 0.399-0.673 0.555c-0.247 0.157-0.527 0.281-0.841 0.37s-0.684 0.135-1.11 0.135c-1.436 0-2.434-0.538-2.994-1.615-0.202-0.381-0.348-0.852-0.437-1.413s-0.135-1.312-0.135-2.254v-6.493c0-1.233 0.034-2.141 0.101-2.725 0.134-1.121 0.661-1.962 1.581-2.523 0.426-0.291 1.065-0.437 1.917-0.437 0.673 0 1.273 0.151 1.8 0.454s0.981 0.735 1.363 1.295h0.067v-8.444h3.431v23.953h-3.431z"></path>
<path fill="#aab9c8" style="fill: var(--color3, #aab9c8)" d="M173.381 28.314h3.431v-17.056h-3.431v17.056zM173.381 7.793h3.431v-3.431h-3.431v3.431z"></path>
<path fill="#aab9c8" style="fill: var(--color3, #aab9c8)" d="M187.241 20.981c-0.381-0.067-0.695-0.101-0.942-0.101-0.74 0-1.374 0.174-1.901 0.522s-0.791 0.981-0.791 1.901c0 0.651 0.156 1.177 0.471 1.581s0.751 0.605 1.312 0.605c0.583 0 1.037-0.191 1.362-0.572s0.488-0.92 0.488-1.615v-2.321zM187.241 28.314v-1.749h-0.067c-0.449 0.628-0.903 1.11-1.363 1.447s-1.105 0.505-1.934 0.505c-0.404 0-0.813-0.062-1.228-0.185s-0.813-0.353-1.194-0.69c-0.382-0.313-0.69-0.768-0.925-1.362s-0.353-1.362-0.353-2.305c0-0.964 0.078-1.811 0.235-2.54 0.156-0.729 0.448-1.34 0.874-1.833 0.404-0.471 0.953-0.825 1.649-1.060s1.581-0.353 2.658-0.353c0.112 0 0.235 0 0.37 0s0.257 0.012 0.37 0.034c0.112 0.023 0.246 0.034 0.404 0.034s0.325 0.012 0.505 0.034v-1.783c0-0.583-0.123-1.065-0.37-1.446s-0.695-0.572-1.346-0.572c-0.449 0-0.858 0.146-1.228 0.438s-0.611 0.718-0.723 1.278h-3.331c0.089-1.525 0.606-2.759 1.548-3.701 0.448-0.448 0.987-0.802 1.615-1.060s1.334-0.387 2.119-0.387c0.718 0 1.39 0.113 2.019 0.336s1.177 0.561 1.648 1.009c0.449 0.449 0.808 1.009 1.077 1.682s0.403 1.458 0.403 2.355v11.875h-3.431z"></path>
</symbol>
<symbol id="icon-photo-camera" viewBox="0 0 35 32">
<title>photo-camera</title>
<path fill="#aab9c8" style="fill: var(--color3, #aab9c8)" d="M17.6 12c-2.916 0-5.28 2.687-5.28 6 0 3.314 2.364 6 5.28 6s5.28-2.686 5.28-6c0-3.313-2.364-6-5.28-6zM31.68 6h-4.224c-0.581 0-1.207-0.512-1.39-1.138l-1.092-3.724c-0.184-0.626-0.809-1.138-1.39-1.138h-11.968c-0.581 0-1.207 0.512-1.39 1.138l-1.092 3.724c-0.184 0.626-0.809 1.138-1.39 1.138h-4.224c-1.936 0-3.52 1.8-3.52 4v18c0 2.2 1.584 4 3.52 4h28.16c1.936 0 3.52-1.8 3.52-4v-18c0-2.2-1.584-4-3.52-4zM17.6 28c-4.86 0-8.8-4.477-8.8-10s3.94-10 8.8-10c4.859 0 8.8 4.478 8.8 10s-3.941 10-8.8 10zM30.448 12.797c-0.68 0-1.232-0.626-1.232-1.4s0.552-1.4 1.232-1.4c0.681 0 1.232 0.627 1.232 1.4s-0.552 1.4-1.232 1.4z"></path>
</symbol>
<symbol id="icon-youtube-footer" viewBox="0 0 32 32">
<title>youtube-footer</title>
<path fill="#707579" style="fill: var(--color6, #707579)" d="M13.046 19.446l7.163-3.705-7.163-3.742v7.458z"></path>
<path fill="#707579" style="fill: var(--color6, #707579)" d="M26.831 21.292c-0.264 1.175-1.228 2.065-2.423 2.214l-0.014 0.001c-2.794 0.308-5.625 0.308-8.431 0.308-2.831 0-5.649 0-8.443-0.32-1.209-0.15-2.173-1.040-2.433-2.196l-0.004-0.019c-0.394-1.698-0.394-3.569-0.394-5.317 0-1.76 0-3.618 0.394-5.329 0.264-1.175 1.228-2.065 2.423-2.214l0.014-0.001c2.794-0.308 5.625-0.32 8.443-0.308 2.818 0 5.649 0 8.443 0.308 1.169 0.123 2.154 1.009 2.437 2.215 0.382 1.711 0.382 3.569 0.382 5.329 0 1.748 0 3.618-0.394 5.329zM15.963 0c-0.132-0.004-0.287-0.006-0.443-0.006-8.816 0-15.963 7.147-15.963 15.963s7.147 15.963 15.963 15.963c0.156 0 0.311-0.002 0.466-0.007l-0.023 0.001c8.623-0.247 15.52-7.297 15.52-15.957s-6.896-15.71-15.497-15.956l-0.023-0.001z"></path>
</symbol>
<symbol id="icon-vk-footer" viewBox="0 0 32 32">
<title>vk-footer</title>
<path fill="#707579" style="fill: var(--color6, #707579)" d="M24.049 17.686c0.738 0.726 1.538 1.415 2.215 2.215 0.283 0.345 0.566 0.714 0.775 1.132 0.308 0.591 0.025 1.231-0.492 1.268h-3.274c-0.056 0.004-0.122 0.007-0.188 0.007-0.759 0-1.44-0.335-1.902-0.866l-0.003-0.003c-0.443-0.455-0.862-0.935-1.292-1.415-0.185-0.197-0.369-0.369-0.591-0.529-0.455-0.283-0.837-0.197-1.095 0.271-0.246 0.468-0.32 0.985-0.345 1.526-0.037 0.763-0.271 0.972-1.034 1.009-0.194 0.016-0.419 0.025-0.647 0.025-1.478 0-2.867-0.383-4.073-1.056l0.042 0.022c-1.261-0.769-2.312-1.757-3.129-2.921l-0.022-0.033c-1.536-2.133-2.924-4.56-4.048-7.129l-0.1-0.256c-0.258-0.578-0.074-0.886 0.566-0.898 1.071-0.025 2.142-0.025 3.2 0 0.443 0 0.738 0.246 0.898 0.665 0.62 1.534 1.347 2.855 2.208 4.075l-0.042-0.062c0.246 0.332 0.48 0.665 0.825 0.911 0.369 0.246 0.665 0.172 0.837-0.246 0.123-0.283 0.172-0.566 0.197-0.862 0.086-0.985 0.086-1.969-0.062-2.954-0.086-0.615-0.431-1.009-1.046-1.12-0.308-0.062-0.271-0.172-0.123-0.357 0.271-0.308 0.517-0.492 1.009-0.492h3.692c0.591 0.111 0.714 0.369 0.8 0.96v4.098c0 0.234 0.123 0.898 0.517 1.058 0.332 0.098 0.554-0.16 0.738-0.369 0.886-0.935 1.526-2.043 2.092-3.2 0.246-0.492 0.455-1.022 0.665-1.551 0.16-0.394 0.406-0.578 0.837-0.578h3.569c0.098 0 0.197 0 0.308 0.025 0.603 0.111 0.763 0.369 0.578 0.948-0.295 0.923-0.862 1.686-1.415 2.462-0.591 0.812-1.231 1.6-1.822 2.437-0.542 0.738-0.492 1.132 0.172 1.785zM15.963 0c-0.132-0.004-0.287-0.006-0.443-0.006-8.816 0-15.963 7.147-15.963 15.963s7.147 15.963 15.963 15.963c0.156 0 0.311-0.002 0.466-0.007l-0.023 0.001c8.623-0.247 15.52-7.297 15.52-15.957s-6.896-15.71-15.497-15.956l-0.023-0.001z"></path>
</symbol>
<symbol id="icon-twitter-footer" viewBox="0 0 32 32">
<title>twitter-footer</title>
<path fill="#707579" style="fill: var(--color6, #707579)" d="M22.978 12.246v0.48c0 4.825-3.668 10.388-10.4 10.388-0.004 0-0.009 0-0.014 0-2.075 0-4.007-0.61-5.627-1.661l0.040 0.024c0.259 0.032 0.558 0.050 0.862 0.050 1.724 0 3.31-0.589 4.569-1.576l-0.016 0.012c-1.595-0.026-2.94-1.070-3.414-2.51l-0.007-0.026c0.208 0.041 0.446 0.065 0.69 0.065 0.341 0 0.671-0.046 0.985-0.133l-0.026 0.006c-1.683-0.35-2.929-1.82-2.929-3.581v-0.049c0.492 0.271 1.058 0.443 1.662 0.455-0.986-0.665-1.626-1.778-1.626-3.040 0-0.675 0.183-1.308 0.503-1.851l-0.009 0.017c1.812 2.212 4.489 3.657 7.507 3.814l0.025 0.001c-0.062-0.251-0.097-0.54-0.097-0.837 0-2.012 1.631-3.643 3.643-3.643 0.008 0 0.017 0 0.025 0h-0.001c1.046 0 1.994 0.443 2.658 1.145 0.881-0.173 1.665-0.481 2.372-0.905l-0.033 0.018c-0.283 0.862-0.862 1.575-1.625 2.018 0.738-0.086 1.452-0.283 2.092-0.566-0.48 0.738-1.108 1.378-1.809 1.883zM15.889 0c-8.763 0-15.889 7.138-15.889 15.889 0 8.763 7.138 15.877 15.889 15.877 8.763 0 15.877-7.114 15.877-15.877s-7.114-15.889-15.877-15.889z"></path>
</symbol>
<symbol id="icon-facebook-footer" viewBox="0 0 32 32">
<title>facebook-footer</title>
<path fill="#707579" style="fill: var(--color6, #707579)" d="M20.111 15.975h-2.622v9.6h-3.594v-9.6h-2.4v-3.298h2.4v-1.945c0-2.708 0.738-4.345 3.902-4.345h2.646v3.311h-1.649c-1.231 0-1.305 0.455-1.305 1.317v1.662h2.966zM15.975 0c-8.826 0-15.982 7.155-15.982 15.982s7.155 15.982 15.982 15.982v0c8.826 0 15.982-7.155 15.982-15.982s-7.155-15.982-15.982-15.982v0z"></path>
</symbol>
<symbol id="icon-youtube" viewBox="0 0 33 32">
<title>youtube</title>
<path d="M13.434 19.457c2.44-1.242 4.86-2.472 7.301-3.715-2.449-1.254-4.867-2.491-7.301-3.738 0 2.493 0 4.96 0 7.452z"></path>
<path d="M16.397 0c-8.982 0-16.264 7.145-16.264 15.959s7.282 15.959 16.264 15.959c8.982 0 16.264-7.145 16.264-15.959s-7.282-15.959-16.264-15.959zM27.479 21.286c-0.282 1.198-1.28 2.082-2.483 2.214-2.847 0.313-5.729 0.314-8.599 0.313-2.87 0.002-5.752 0-8.601-0.313-1.202-0.132-2.201-1.015-2.481-2.214-0.4-1.707-0.4-3.57-0.4-5.327s0.005-3.621 0.405-5.327c0.281-1.198 1.279-2.083 2.481-2.215 2.848-0.312 5.73-0.314 8.601-0.312 2.869-0.002 5.752 0 8.599 0.312 1.203 0.132 2.202 1.016 2.483 2.215 0.4 1.707 0.397 3.57 0.397 5.327s-0.001 3.62-0.401 5.327z"></path>
</symbol>
<symbol id="icon-twitter" viewBox="0 0 33 32">
<title>twitter</title>
<path d="M16.376 0c-8.928 0-16.192 7.128-16.192 15.889s7.264 15.889 16.192 15.889c8.927 0 16.192-7.128 16.192-15.889s-7.263-15.889-16.192-15.889zM23.599 12.252c0.007 0.157 0.011 0.316 0.011 0.475 0 4.833-3.748 10.403-10.604 10.403-2.105 0-4.064-0.604-5.713-1.642 0.292 0.034 0.588 0.051 0.889 0.051 1.747 0 3.353-0.585 4.629-1.565-1.631-0.029-3.007-1.087-3.482-2.54 0.227 0.042 0.461 0.066 0.7 0.066 0.34 0 0.67-0.044 0.982-0.127-1.705-0.335-2.989-1.813-2.989-3.586 0-0.015 0-0.031 0.001-0.046 0.502 0.273 1.077 0.438 1.687 0.457-0.999-0.655-1.657-1.775-1.657-3.043 0-0.671 0.183-1.299 0.504-1.839 1.837 2.213 4.584 3.668 7.681 3.822-0.064-0.268-0.096-0.547-0.096-0.834 0-2.019 1.668-3.657 3.726-3.657 1.072 0 2.039 0.444 2.72 1.155 0.85-0.164 1.646-0.467 2.367-0.888-0.28 0.854-0.869 1.571-1.641 2.024 0.755-0.088 1.475-0.284 2.141-0.575-0.497 0.732-1.129 1.377-1.858 1.891z"></path>
</symbol>
<symbol id="icon-search1" viewBox="0 0 32 32">
<title>search1</title>
<path d="M0 16c0-8.837 7.163-16 16-16s16 7.163 16 16v0c0 8.837-7.163 16-16 16s-16-7.163-16-16v0z"></path>
<path fill="#fff" style="fill: var(--color1, #fff)" d="M20.242 14.259c0 3.31-2.681 5.994-5.99 5.998h-0c-3.313 0-5.998-2.685-5.998-5.998s2.685-5.998 5.998-5.998v0c3.309 0.004 5.991 2.688 5.991 5.998 0 0 0 0 0 0v0zM7.442 14.259c0.012 3.756 3.059 6.795 6.817 6.795 1.733 0 3.314-0.646 4.517-1.711l-0.007 0.006 4.339 4.346c0.082 0.074 0.186 0.119 0.298 0.119 0.003 0 0.006 0 0.009 0 0.226 0 0.409-0.183 0.409-0.409 0-0.113-0.046-0.216-0.121-0.29l-0-0-4.354-4.346c1.072-1.199 1.727-2.79 1.727-4.534 0-3.765-3.052-6.817-6.817-6.817s-6.817 3.052-6.817 6.817c0 0.006 0 0.012 0 0.018v-0.001z"></path>
</symbol>
<symbol id="icon-facebook" viewBox="0 0 33 32">
<title>facebook</title>
<path d="M16.285 0c-8.993 0-16.285 7.155-16.285 15.98s7.292 15.98 16.285 15.98c8.993 0 16.285-7.155 16.285-15.98 0-8.827-7.292-15.98-16.285-15.98zM20.494 15.978l-2.669 0.002-0.002 9.588h-3.662v-9.588h-2.443v-3.304l2.443-0.002-0.004-1.946c0-2.697 0.745-4.337 3.98-4.337h2.695v3.306h-1.686c-1.26 0-1.321 0.461-1.321 1.322l-0.004 1.654h3.029l-0.356 3.304z"></path>
</symbol>
</defs>
</svg>
