<?xml version="1.0" encoding="UTF-8"?>
<svg width="44px" height="43px" viewBox="0 0 44 43" version="1.1" xmlns="http://www.w3.org/2000/svg" xmlns:xlink="http://www.w3.org/1999/xlink">
    <!-- Generator: Sketch 51.3 (57544) - http://www.bohemiancoding.com/sketch -->
    <title>twitter</title>
    <desc>Created with Sketch.</desc>
    <defs></defs>
    <g id="Page-1" stroke="none" stroke-width="1" fill="none" fill-rule="evenodd">
        <g id="qha_design_home4" transform="translate(-452.000000, -115.000000)" fill="#AAB9C8" fill-rule="nonzero">
            <g id="header_3" transform="translate(-54.000000, 67.000000)">
                <g id="header">
                    <g id="socialblock" transform="translate(454.000000, 48.000000)">
                        <g id="twitter" transform="translate(52.247191, 0.000000)">
                            <path d="M21.757618,0 C9.76051685,0 0,9.57782 0,21.35036 C0,33.12204 9.76051685,42.70072 21.757618,42.70072 C33.7538427,42.70072 43.515236,33.12204 43.515236,21.35036 C43.515236,9.57782 33.7555955,0 21.757618,0 Z M31.4637978,16.46384 C31.4734382,16.6754 31.4786966,16.88868 31.4786966,17.10196 C31.4786966,23.59582 26.4428764,31.08126 17.229236,31.08126 C14.4010787,31.08126 11.7683596,30.27028 9.55280899,28.87536 C9.9445618,28.92094 10.3433258,28.94416 10.7473483,28.94416 C13.0943596,28.94416 15.2529438,28.15812 16.967191,26.8406 C14.7761798,26.80104 12.9260899,25.38032 12.2889438,23.42726 C12.5939326,23.48402 12.9085618,23.51584 13.2302022,23.51584 C13.686809,23.51584 14.1302697,23.45736 14.5500674,23.3447 C12.2591461,22.89406 10.5335056,20.90832 10.5335056,18.52612 C10.5335056,18.50548 10.5335056,18.48398 10.534382,18.4642 C11.2092135,18.83142 11.9813258,19.0533 12.8016404,19.07824 C11.4589888,18.19846 10.5746966,16.69346 10.5746966,14.98894 C10.5746966,14.08766 10.8209663,13.24314 11.2521573,12.5173 C13.7209888,15.49118 17.4124045,17.44682 21.573573,17.65322 C21.4876854,17.29288 21.4447416,16.91878 21.4447416,16.53264 C21.4447416,13.81934 23.6865843,11.6186 26.4516404,11.6186 C27.8924494,11.6186 29.1921573,12.21544 30.1071236,13.17004 C31.2490787,12.94988 32.3182921,12.54224 33.2884719,11.97722 C32.911618,13.12532 32.1202247,14.08766 31.0834382,14.69654 C32.0974382,14.57786 33.0649888,14.3147 33.9597978,13.9234 C33.2919775,14.90724 32.4427416,15.77326 31.4637978,16.46384 Z" id="Shape"></path>
                        </g>
                    </g>
                </g>
            </g>
        </g>
    </g>
</svg>