<svg xmlns="http://www.w3.org/2000/svg" xmlns:xlink="http://www.w3.org/1999/xlink" width="26" height="26" viewBox="0 0 26 26"><defs><path id="2exza" d="M720.54 4524.37c.6.59 1.25 1.15 1.8 1.8.23.28.46.58.63.92.25.48.02 1-.4 1.03h-2.66a2.05 2.05 0 0 1-1.7-.7c-.36-.37-.7-.76-1.05-1.15-.15-.16-.3-.3-.48-.43-.37-.23-.68-.16-.89.22-.2.38-.26.8-.28 1.24-.03.62-.22.79-.84.82a6.8 6.8 0 0 1-3.8-.82 8.4 8.4 0 0 1-2.56-2.4 32.27 32.27 0 0 1-3.37-6c-.21-.47-.06-.72.46-.73.87-.02 1.74-.02 2.6 0 .36 0 .6.2.73.54a16.14 16.14 0 0 0 1.76 3.26c.2.27.39.54.67.74.3.2.54.14.68-.2.1-.23.14-.46.16-.7.07-.8.07-1.6-.05-2.4-.07-.5-.35-.82-.85-.91-.25-.05-.22-.14-.1-.29.22-.25.42-.4.82-.4h3c.48.09.58.3.65.78v3.33c0 .19.1.73.42.86.27.08.45-.13.6-.3.72-.76 1.24-1.66 1.7-2.6.2-.4.37-.83.54-1.26.13-.32.33-.47.68-.47h2.9c.08 0 .16 0 .25.02.49.09.62.3.47.77-.24.75-.7 1.37-1.15 2-.48.66-1 1.3-1.48 1.98-.44.6-.4.92.14 1.45zm-6.57-14.37a12.97 12.97 0 1 0 0 25.93 12.97 12.97 0 0 0 0-25.93z"/></defs><g><g transform="translate(-701 -4510)"><use fill="#707579" xlink:href="#2exza"/></g></g></svg>