<svg xmlns="http://www.w3.org/2000/svg" xmlns:xlink="http://www.w3.org/1999/xlink" width="28" height="25" viewBox="0 0 28 25"><defs><path id="q2uwa" d="M883.74 2191.167a1.8 1.8 0 0 1-1.795 1.799 1.8 1.8 0 0 1-1.795-1.8v-8.257c0-.47.38-.852.85-.852h1.89c.47 0 .85.381.85.852v8.258zm-1.795 7.649a1.79 1.79 0 0 1-1.783-1.792c0-.988.8-1.792 1.783-1.792a1.79 1.79 0 0 1 1.783 1.792c0 .988-.8 1.792-1.783 1.792zm13.573-.964l-11.201-19.45a2.71 2.71 0 0 0-2.372-1.372 2.71 2.71 0 0 0-2.372 1.373l-11.202 19.449a2.723 2.723 0 0 0 0 2.745 2.71 2.71 0 0 0 2.372 1.373h22.404a2.71 2.71 0 0 0 2.371-1.373 2.724 2.724 0 0 0 0-2.745z"/></defs><g><g transform="translate(-868 -2177)"><use fill="#aab9c8" xlink:href="#q2uwa"/></g></g></svg>