<?xml version="1.0" encoding="UTF-8"?>
<svg width="44px" height="43px" viewBox="0 0 44 43" version="1.1" xmlns="http://www.w3.org/2000/svg" xmlns:xlink="http://www.w3.org/1999/xlink">
    <!-- Generator: Sketch 51.3 (57544) - http://www.bohemiancoding.com/sketch -->
    <title>youtube</title>
    <desc>Created with Sketch.</desc>
    <defs></defs>
    <g id="Page-1" stroke="none" stroke-width="1" fill="none" fill-rule="evenodd">
        <g id="qha_design_home4" transform="translate(-506.000000, -115.000000)" fill="#AAB9C8" fill-rule="nonzero">
            <g id="header_3" transform="translate(-54.000000, 67.000000)">
                <g id="header">
                    <g id="socialblock" transform="translate(454.000000, 48.000000)">
                        <g id="youtube" transform="translate(106.179775, 0.000000)">
                            <path d="M17.8719445,26.1453163 C21.151307,24.4766531 24.4020523,22.8233469 27.6827562,21.1538061 C24.3922151,19.4689082 21.1423641,17.805949 17.8719445,16.1311429 C17.8719445,19.4807551 17.8719445,22.7961429 17.8719445,26.1453163 Z" id="Shape"></path>
                            <path d="M21.8542192,0 C9.78487732,0 0,9.60128571 0,21.4451531 C0,33.2890204 9.78487732,42.8903061 21.8542192,42.8903061 C33.9235611,42.8903061 43.7084384,33.2890204 43.7084384,21.4451531 C43.7084384,9.60128571 33.9235611,0 21.8542192,0 Z M36.7445999,28.6033367 C36.3663151,30.2136429 35.0239853,31.4014082 33.4084499,31.5782347 C29.5822288,31.9981429 25.7099518,32.0003367 21.8533249,31.9981429 C17.996698,32.0003367 14.1235267,31.9981429 10.2964114,31.5782347 C8.68087595,31.4014082 7.3394405,30.2136429 6.96204999,28.6033367 C6.42413437,26.3094184 6.42413437,23.8062041 6.42413437,21.4451531 C6.42413437,19.084102 6.4303944,16.5800102 6.96831002,14.2869694 C7.34570053,12.6766633 8.68713598,11.4884592 10.3026714,11.3111939 C14.1297867,10.8917245 18.002958,10.8895306 21.859585,10.8917245 C25.7153176,10.8895306 29.5884889,10.8917245 33.4142628,11.3111939 C35.0306925,11.4884592 36.3730222,12.6762245 36.7504127,14.2869694 C37.2883284,16.580449 37.2838569,19.084102 37.2838569,21.4451531 C37.2838569,23.8062041 37.2825155,26.3098571 36.7445999,28.6033367 Z" id="Shape"></path>
                        </g>
                    </g>
                </g>
            </g>
        </g>
    </g>
</svg>